<svg id="shield-3" xmlns="http://www.w3.org/2000/svg" width="205.359" height="244.007" viewBox="0 0 205.359 244.007">
  <g id="Groupe_647" data-name="Groupe 647" transform="translate(0 0)">
    <path id="Tracé_2578" data-name="Tracé 2578" d="M239.009,62.807c-.292-6.419-.292-12.547-.292-18.674a8.6,8.6,0,0,0-8.754-8.754c-36.473,0-64.193-10.5-87.244-32.972a9,9,0,0,0-12.255,0C107.413,24.875,79.693,35.379,43.22,35.379a8.6,8.6,0,0,0-8.754,8.754c0,6.128,0,12.255-.292,18.674-1.167,61.275-2.918,145.31,99.5,180.616l2.918.584,2.918-.584C241.635,208.117,240.176,124.374,239.009,62.807Zm-109.42,84.91a9.417,9.417,0,0,1-6.128,2.334h-.292a8.212,8.212,0,0,1-6.128-2.918L89.906,117.08l13.13-11.671,21.3,23.635,47.269-44.935,11.963,12.839Z" transform="translate(-33.908 0)" fill="#1f6666"/>
  </g>
</svg>
