<svg xmlns="http://www.w3.org/2000/svg" width="21.33" height="27.779" viewBox="0 0 21.33 27.779">
  <g id="jpg" transform="translate(-6.5)">
    <path id="Tracé_2484" data-name="Tracé 2484" d="M21.622,0H7.226C6.825,0,6.5.325,6.5.955V27.283a.747.747,0,0,0,.726.5H27.1a.747.747,0,0,0,.726-.5V6.438c0-.345-.046-.456-.127-.538L21.931.127A.438.438,0,0,0,21.622,0Z" fill="#e9e9e0"/>
    <path id="Tracé_2485" data-name="Tracé 2485" d="M37.5.151V6.029h5.878Z" transform="translate(-15.623 -0.076)" fill="#d9d7ca"/>
    <circle id="Ellipse_13" data-name="Ellipse 13" cx="2.266" cy="2.266" r="2.266" transform="translate(10.4 4.892)" fill="#f3d55b"/>
    <path id="Tracé_2486" data-name="Tracé 2486" d="M6.5,28.669H27.83V23.212L22.87,18.5l-5.209,5.7-2.72-2.72Z" transform="translate(0 -9.323)" fill="#26b99a"/>
    <path id="Tracé_2487" data-name="Tracé 2487" d="M27.1,47.433H7.226a.726.726,0,0,1-.726-.726V39H27.83v7.707A.726.726,0,0,1,27.1,47.433Z" transform="translate(0 -19.654)" fill="#14a085"/>
    <g id="Groupe_611" data-name="Groupe 611" transform="translate(10.845 21.156)">
      <path id="Tracé_2488" data-name="Tracé 2488" d="M18.319,42.65v3.893a1.245,1.245,0,0,1-.129.593,1.063,1.063,0,0,1-.346.386,1.378,1.378,0,0,1-.5.2,2.867,2.867,0,0,1-.58.058,2.352,2.352,0,0,1-.349-.031A2.967,2.967,0,0,1,16,47.659q-.214-.065-.41-.146a1.5,1.5,0,0,1-.332-.183l.346-.549a1.013,1.013,0,0,0,.193.1q.125.051.275.095c.1.03.2.055.312.078a1.486,1.486,0,0,0,.305.034,1.042,1.042,0,0,0,.573-.139.549.549,0,0,0,.227-.471V42.65Z" transform="translate(-15.26 -42.65)" fill="#fff"/>
      <path id="Tracé_2489" data-name="Tracé 2489" d="M24.687,47.854h-.814v-5h1.438a2.018,2.018,0,0,1,.63.1,1.715,1.715,0,0,1,.56.305,1.593,1.593,0,0,1,.4.492,1.362,1.362,0,0,1,.153.648,1.772,1.772,0,0,1-.129.689,1.439,1.439,0,0,1-.36.519,1.62,1.62,0,0,1-.556.325,2.14,2.14,0,0,1-.719.115h-.6v1.8Zm0-4.381v1.98h.746a.886.886,0,0,0,.3-.051A.743.743,0,0,0,26,45.236a.812.812,0,0,0,.2-.322,1.525,1.525,0,0,0,.074-.512,1.385,1.385,0,0,0-.034-.281.812.812,0,0,0-.139-.305.822.822,0,0,0-.3-.244,1.091,1.091,0,0,0-.5-.1Z" transform="translate(-19.601 -42.753)" fill="#fff"/>
      <path id="Tracé_2490" data-name="Tracé 2490" d="M35.711,45.194v1.933a1.46,1.46,0,0,1-.349.322,2.135,2.135,0,0,1-.407.207,2.1,2.1,0,0,1-.441.115,2.9,2.9,0,0,1-.451.035,2.051,2.051,0,0,1-.824-.163,1.845,1.845,0,0,1-.658-.482,2.272,2.272,0,0,1-.441-.8,3.951,3.951,0,0,1,0-2.221,2.261,2.261,0,0,1,.441-.8,1.875,1.875,0,0,1,.661-.485,2.018,2.018,0,0,1,.82-.166,2.1,2.1,0,0,1,.759.135,1.853,1.853,0,0,1,.63.407l-.563.5a.968.968,0,0,0-.373-.285,1.117,1.117,0,0,0-.434-.088,1.224,1.224,0,0,0-.478.095,1.024,1.024,0,0,0-.407.322,1.659,1.659,0,0,0-.281.587,3.461,3.461,0,0,0-.109.881,3.678,3.678,0,0,0,.105.881,1.809,1.809,0,0,0,.271.61,1.156,1.156,0,0,0,.393.353.988.988,0,0,0,.465.115c.05,0,.116,0,.2-.01a2.434,2.434,0,0,0,.251-.034,1.632,1.632,0,0,0,.241-.064.345.345,0,0,0,.17-.115V45.75h-.848v-.556h1.655Z" transform="translate(-23.687 -42.671)" fill="#fff"/>
    </g>
  </g>
</svg>
