<svg xmlns="http://www.w3.org/2000/svg" width="24.477" height="31.876" viewBox="0 0 24.477 31.876">
  <g id="pdf-5" transform="translate(-6.5)">
    <path id="Tracé_2477" data-name="Tracé 2477" d="M23.853,0H7.333C6.873,0,6.5.373,6.5,1.1V31.307a.857.857,0,0,0,.833.569H30.144a.857.857,0,0,0,.833-.569V7.387c0-.4-.053-.524-.146-.618L24.207.146A.5.5,0,0,0,23.853,0Z" fill="#e9e9e0"/>
    <path id="Tracé_2478" data-name="Tracé 2478" d="M37.5.151V6.9h6.745Z" transform="translate(-13.354 -0.065)" fill="#d9d7ca"/>
    <path id="Tracé_2479" data-name="Tracé 2479" d="M18.611,21.945h0a.914.914,0,0,1-.55-.186,1.364,1.364,0,0,1-.635-1.276c.1-.927,1.249-1.9,3.407-2.885a38.21,38.21,0,0,0,2.156-6.119c-.568-1.236-1.12-2.84-.718-3.781a1.092,1.092,0,0,1,.646-.692,2.8,2.8,0,0,1,.578-.1c.287,0,.539.369.718.6s.549.668-.212,3.872a18.189,18.189,0,0,0,2.9,4.3,11.074,11.074,0,0,1,1.911-.2c.891,0,1.432.208,1.652.636a1.152,1.152,0,0,1-.222,1.23,1.513,1.513,0,0,1-1.264.678,3.784,3.784,0,0,1-2.4-1.3,27.274,27.274,0,0,0-5.025,1.606,16.151,16.151,0,0,1-1.356,2.42C19.612,21.563,19.109,21.945,18.611,21.945Zm1.515-2.918c-1.216.684-1.712,1.245-1.748,1.562-.006.052-.021.19.245.394C18.709,20.956,19.2,20.73,20.126,19.027ZM27.889,16.5c.464.357.577.537.881.537a.858.858,0,0,0,.689-.251.9.9,0,0,0,.131-.236c-.07-.037-.163-.112-.669-.112A8.323,8.323,0,0,0,27.889,16.5Zm-4.252-3.747a40.581,40.581,0,0,1-1.522,4.306,28.442,28.442,0,0,1,3.7-1.15A19.485,19.485,0,0,1,23.637,12.752Zm-.346-4.817a1.365,1.365,0,0,0,.055,1.831C23.886,8.562,23.316,7.927,23.291,7.935Z" transform="translate(-4.703 -2.976)" fill="#cc4b4c"/>
    <path id="Tracé_2480" data-name="Tracé 2480" d="M30.144,48.677H7.333a.833.833,0,0,1-.833-.833V39H30.977v8.844A.833.833,0,0,1,30.144,48.677Z" transform="translate(0 -16.8)" fill="#cc4b4c"/>
    <g id="Groupe_610" data-name="Groupe 610" transform="translate(11.762 24.433)">
      <path id="Tracé_2481" data-name="Tracé 2481" d="M16.678,48.659h-.934V42.924h1.65a2.315,2.315,0,0,1,.723.117,1.968,1.968,0,0,1,.642.35,1.828,1.828,0,0,1,.459.564,1.563,1.563,0,0,1,.175.743,2.033,2.033,0,0,1-.148.79,1.651,1.651,0,0,1-.413.6,1.859,1.859,0,0,1-.638.373,2.455,2.455,0,0,1-.825.132h-.693v2.07Zm0-5.027V45.9h.856a1.017,1.017,0,0,0,.339-.059.853.853,0,0,0,.307-.191.932.932,0,0,0,.225-.369,1.75,1.75,0,0,0,.085-.587,1.589,1.589,0,0,0-.039-.323.932.932,0,0,0-.159-.35.943.943,0,0,0-.339-.28,1.258,1.258,0,0,0-.576-.113h-.7Z" transform="translate(-15.744 -42.924)" fill="#fff"/>
      <path id="Tracé_2482" data-name="Tracé 2482" d="M28.715,45.632a4.214,4.214,0,0,1-.152,1.21,3.008,3.008,0,0,1-.385.841,1.979,1.979,0,0,1-.525.533,2.635,2.635,0,0,1-.564.292,2.331,2.331,0,0,1-.5.125,3.317,3.317,0,0,1-.335.026H24.084V42.924h1.728a3.282,3.282,0,0,1,1.272.229,2.641,2.641,0,0,1,.911.611,2.507,2.507,0,0,1,.541.867A2.873,2.873,0,0,1,28.715,45.632Zm-2.77,2.342a1.546,1.546,0,0,0,1.37-.607,3.081,3.081,0,0,0,.42-1.759,2.979,2.979,0,0,0-.085-.708,1.515,1.515,0,0,0-.331-.634,1.746,1.746,0,0,0-.665-.459,2.865,2.865,0,0,0-1.089-.175h-.545v4.343h.926Z" transform="translate(-19.337 -42.924)" fill="#fff"/>
      <path id="Tracé_2483" data-name="Tracé 2483" d="M35.547,43.632v1.806h2.4v.638h-2.4v2.584H34.6V42.924h3.587v.708Z" transform="translate(-23.866 -42.924)" fill="#fff"/>
    </g>
  </g>
</svg>
