<svg xmlns="http://www.w3.org/2000/svg" width="11" height="11" viewBox="0 0 11 11">
  <g id="x-button" transform="translate(-0.5 -0.5)">
    <circle id="Ellipse_8" data-name="Ellipse 8" cx="5.5" cy="5.5" r="5.5" transform="translate(0.5 0.5)" fill="#e21b1b"/>
    <path id="Tracé_960" data-name="Tracé 960" d="M157.983,145.995l-3.059-3.059-4.676,4.848,3.028,3.028A5.5,5.5,0,0,0,157.983,145.995Z" transform="translate(-146.887 -139.732)" fill="#c40606"/>
    <g id="Groupe_146" data-name="Groupe 146" transform="translate(3.153 3.092)">
      <path id="Tracé_961" data-name="Tracé 961" d="M145.14,142.733a.429.429,0,0,1-.3-.126l-4.164-4.164a.43.43,0,0,1,.608-.608L145.444,142a.43.43,0,0,1-.3.733Z" transform="translate(-140.546 -137.709)" fill="#fff"/>
      <path id="Tracé_962" data-name="Tracé 962" d="M140.968,142.73a.43.43,0,0,1-.3-.733l4.164-4.164a.43.43,0,0,1,.608.608l-4.164,4.164A.428.428,0,0,1,140.968,142.73Z" transform="translate(-140.538 -137.706)" fill="#fff"/>
    </g>
  </g>
</svg>
