<svg id="cloud-computing-3" xmlns="http://www.w3.org/2000/svg" width="33.118" height="26" viewBox="0 0 33.118 26">
  <g id="Groupe_605" data-name="Groupe 605" transform="translate(0 0)">
    <g id="Groupe_604" data-name="Groupe 604">
      <path id="Tracé_2473" data-name="Tracé 2473" d="M27.593,63.647A11.383,11.383,0,0,0,5.2,65.592,6.209,6.209,0,0,0,6.234,77.927h5.174v-2.07H6.234a4.139,4.139,0,0,1,0-8.279,1.035,1.035,0,0,0,1.035-1.035A9.314,9.314,0,0,1,25.72,64.733a1.035,1.035,0,0,0,.88.828,5.174,5.174,0,0,1-.7,10.3H21.757v2.07H25.9a7.244,7.244,0,0,0,1.7-14.281Z" transform="translate(0 -55.032)" fill="#fff"/>
      <path id="Tracé_2474" data-name="Tracé 2474" d="M185.174,249.312l-4.139,4.139,1.459,1.459,2.38-2.37v9.924h2.07v-9.924l2.37,2.37,1.459-1.459-4.139-4.139A1.035,1.035,0,0,0,185.174,249.312Z" transform="translate(-169.326 -236.465)" fill="#fff"/>
    </g>
  </g>
</svg>
