<svg xmlns="http://www.w3.org/2000/svg" width="17.302" height="10.313" viewBox="0 0 17.302 10.313">
  <g id="eye" transform="translate(0 -98.725)">
    <path id="Tracé_796" data-name="Tracé 796" d="M8.651,98.725c-3.306,0-6.3,1.809-8.515,4.746a.685.685,0,0,0,0,.818c2.212,2.941,5.21,4.75,8.515,4.75s6.3-1.809,8.515-4.746a.685.685,0,0,0,0-.818C14.954,100.534,11.956,98.725,8.651,98.725Zm.237,8.788a3.639,3.639,0,1,1,3.394-3.394A3.641,3.641,0,0,1,8.888,107.513Zm-.11-1.678a1.959,1.959,0,1,1,1.83-1.83A1.956,1.956,0,0,1,8.778,105.835Z" transform="translate(0)" fill="#0f4947"/>
  </g>
</svg>
