<svg xmlns="http://www.w3.org/2000/svg" width="22.218" height="37.286" viewBox="0 0 22.218 37.286">
  <g id="deer-silhouette" transform="translate(-116.334 -0.001)">
    <g id="Groupe_153" data-name="Groupe 153" transform="translate(116.334 0.001)">
      <path id="Tracé_976" data-name="Tracé 976" d="M138.5,1.572a.647.647,0,0,0-.47-.488,1.329,1.329,0,0,1-.082,1.32c-.225.434-.368.547-.819.441a2.178,2.178,0,0,0-.5-2.845.585.585,0,0,0,0,.3c.046.179.108.353.159.531a1.323,1.323,0,0,1-.11,1.049A.4.4,0,0,1,136,2a3.862,3.862,0,0,0-.38-.331A6.151,6.151,0,0,1,134.252.534a1.342,1.342,0,0,0-.167-.144l-.073.045.362.928L134.1,1.3a.359.359,0,0,0,.106.226c.155.151.311.3.476.443a2.869,2.869,0,0,1,1.086,1.9,5.841,5.841,0,0,1,.026.935,2.134,2.134,0,0,1-.123.774c-.342.742-.727,1.465-1.1,2.193a1.152,1.152,0,0,1-.163.177c0-.535.029-1-.008-1.46a2.846,2.846,0,0,0-.354-1.324.4.4,0,0,0-.034.171c-.019.658-.009,1.318-.064,1.972a2.8,2.8,0,0,1-.806,1.929c-.364.337-.725.677-1.095,1.007-.047.042-.141.033-.213.047a.848.848,0,0,1-.016-.2c.048-.3.123-.6.152-.9.058-.607.092-1.216.134-1.824a.962.962,0,0,0-.038-.185,4.8,4.8,0,0,0-.479,1.52,3.732,3.732,0,0,1-.606,1.879.845.845,0,0,0-.1.4.464.464,0,0,1-.3.422,2.364,2.364,0,0,1-1.433.148.694.694,0,0,1-.522-.331,4.939,4.939,0,0,0-.551-.832,2.177,2.177,0,0,1-.628-1.11,2.955,2.955,0,0,0-.076-.328c-.141-.487-.286-.974-.429-1.46l-.083.016a13.138,13.138,0,0,0,.269,2.6c-.144-.113-.243-.192-.344-.27a2.766,2.766,0,0,1-1.113-1.5c-.078-.3-.161-.605-.234-.909-.084-.353-.159-.708-.238-1.062a4.835,4.835,0,0,0-.1,1.822,14.626,14.626,0,0,1-.973-1.811,3.066,3.066,0,0,1-.054-2.437,4.143,4.143,0,0,1,.714-1.014,3.455,3.455,0,0,0,.332-.639h-.3A6.858,6.858,0,0,0,125.05.745a.39.39,0,0,0-.166.145c-.281.44-.558.882-.839,1.322-.217.338-.431.678-.662,1.006a.413.413,0,0,1-.568.179L123.023,3l-.049-.034-.39.283a1.33,1.33,0,0,1-.2-.943c.068-.468.164-.933.24-1.4a3.386,3.386,0,0,0,.02-.385L122.566.5a1.654,1.654,0,0,0-.133.207c-.176.387-.337.782-.522,1.165a1.823,1.823,0,0,0,.111,1.837,2.43,2.43,0,0,1,.13.42c.088.244.179.488.282.726a2.451,2.451,0,0,1,.354,1.153,2.559,2.559,0,0,0,.737,2.092c.524.517,1.06,1.024,1.615,1.507.617.537,1.265,1.04,1.894,1.564.151.126.283.276.424.414-.468-.123-.887-.31-1.324-.436a1.847,1.847,0,0,1-1.1-.76c-.026-.04-.086-.058-.13-.086-.028.052-.089.112-.078.156a1.39,1.39,0,0,0,.152.448c.366.555.737,1.108,1.134,1.641a1.977,1.977,0,0,0,.632.6c.2.1.416.15.547.345.09.134.161.281.241.422a.883.883,0,0,1-.011,1.018.334.334,0,0,0-.049.109c-.19.794-.376,1.589-.571,2.382a.421.421,0,0,1-.129.219,1.911,1.911,0,0,1-1.1.443c-.905.05-1.81.1-2.716.142a3.063,3.063,0,0,1-.568-.076,1.482,1.482,0,0,0-.4-.06c-.521.073-1.039.169-1.558.256a2.178,2.178,0,0,0-.539.092,7.16,7.16,0,0,0-1.16.616c-.444.313-1.03.445-1.307.982-.013.026-.049.041-.074.06a2.522,2.522,0,0,0-.909,1.483,7.35,7.35,0,0,0,.081,1.931.111.111,0,0,0,.006.023c.191.875.428,1.743.56,2.626.117.786.127,1.589.166,2.385.034.687.042,1.376.059,2.065a.871.871,0,0,1-.02.287,13.549,13.549,0,0,1-.6,1.722,2.313,2.313,0,0,0-.257,1.257,13.5,13.5,0,0,1-.071,1.556c-.013.335,0,.67,0,1.005-.1.6-.047.894.821.75s1.206.434,1.085-.241a1.6,1.6,0,0,0-.839-1.017c-.043-.059-.128-.125-.12-.177a3.539,3.539,0,0,1,.135-.533c.171-.542.343-1.083.523-1.621.119-.356.238-.714.385-1.059.4-.951.823-1.9,1.238-2.843a5.57,5.57,0,0,1,.8-1.516c.238.344.37-.083.545-.044.39.266.219.676.263,1.019a1.763,1.763,0,0,1-.154,1.1c-.356.646-.678,1.312-1.053,1.946a.938.938,0,0,0-.029.993,17.652,17.652,0,0,1,.922,2.024c.128.369.4.634.522.992.069.164-.219.8.215.707s1.448.167,1.472,0a1.713,1.713,0,0,0-.675-1.23c-.506-.338-.5-1.436-.5-1.436a2.131,2.131,0,0,1,.543-1.916,8.468,8.468,0,0,0,.771-1.006c.233-.381.4-.8.6-1.207.056-.115.118-.228.174-.344a.333.333,0,0,1,.363-.218.118.118,0,0,0,.048,0,2.468,2.468,0,0,1,1.126.027c.188.026.383,0,.572.016.075.008.19.071.208.132a15.455,15.455,0,0,1,.741,3.277,4.117,4.117,0,0,0,.232.753,4.032,4.032,0,0,1,0,.7l.06.675s-.264,1.347-.087,1.379.627-.08.9.048a1.813,1.813,0,0,0,.908-.064c.072-.434-.671-.983-.671-.983-.007-.543-.038-1.088,0-1.63.018-.235.155-.461.169-.7a3.127,3.127,0,0,0-.081-.777c-.1-.495-.248-.98-.316-1.478-.061-.455-.036-.922-.059-1.384a.459.459,0,0,1,.228-.436,1.678,1.678,0,0,1,1.91.1c.067.068.225.046.395.062a.052.052,0,0,1,.046.045l.531,4.086c0,.036.285,1.1.149,1.248-.074.081-.031.268-.019.458a1.157,1.157,0,0,0,.077,1.117c.386.458,1.688.41,1.688.41s-.048-.241-.169-.771-.309-.552-.309-.552a.53.53,0,0,1,.056-.716c-.005-.04.005-.1-.016-.115-.222-.18-.145-.41-.132-.641.017-.294,0-.591-.012-.886-.034-.824-.131-1.651-.093-2.472.032-.678.236-1.347.337-2.024.068-.459.1-.924.124-1.388a1.329,1.329,0,0,1,.33-.871,2.817,2.817,0,0,0,.383-.587c.092-.175.129-.378.219-.555a2.126,2.126,0,0,0,.318-1.758.2.2,0,0,1,0-.048q-.091-.922-.182-1.844a4.3,4.3,0,0,1-.055-.6c.014-.326.094-.651.087-.976a8.732,8.732,0,0,0-.126-1.674,10.3,10.3,0,0,0-.617-1.795,14.6,14.6,0,0,0-.871-1.716,1.437,1.437,0,0,1-.116-1.1.532.532,0,0,1,.173-.245,2.276,2.276,0,0,0,.807-.977.919.919,0,0,1,.174-.335c.3-.35.621-.684.924-1.033a2.579,2.579,0,0,0,.313-.451.717.717,0,0,0,.027-.271c-.094.012-.133.03-.151.061a1.5,1.5,0,0,1-.875.634c-.453.155-.893.35-1.34.526a1.306,1.306,0,0,1-.21.034,3.77,3.77,0,0,1,.286-.363c.31-.3.624-.6.946-.892.44-.4.9-.782,1.332-1.183.466-.428.907-.884,1.381-1.3a2.563,2.563,0,0,0,.907-2.389,1.82,1.82,0,0,1,.519-1.413,3.528,3.528,0,0,1,.426-.455.612.612,0,0,1,.321-.15c.224-.021.258-.077.166-.287a.518.518,0,0,1-.025-.327A1.957,1.957,0,0,0,138.5,1.572Z" transform="translate(-116.334 -0.001)" fill="#cccbce"/>
    </g>
  </g>
</svg>
