<svg xmlns="http://www.w3.org/2000/svg" width="34" height="28.333" viewBox="0 0 34 28.333">
  <g id="car-6" transform="translate(0 -42.667)">
    <g id="Groupe_155" data-name="Groupe 155" transform="translate(0 42.667)">
      <g id="Groupe_154" data-name="Groupe 154">
        <path id="Tracé_978" data-name="Tracé 978" d="M32.224,218.812l-6.236-1.039L28,214.75h3.871a.708.708,0,1,0,0-1.417h-4.25a.708.708,0,0,0-.589.315l-2.244,3.366-1.613-2.42a2.827,2.827,0,0,0-2.357-1.262H10.345a2.827,2.827,0,0,0-2.357,1.262l-2.05,3.076-4.329,1.082A2.122,2.122,0,0,0,0,220.814v3.559A3.127,3.127,0,0,0,3.127,227.5H4.958a.651.651,0,0,0,.07-.014,3.54,3.54,0,0,0,6.943,0,.654.654,0,0,0,.07.014H21.25a.651.651,0,0,0,.07-.014,3.54,3.54,0,0,0,6.943,0,.654.654,0,0,0,.07.014h3.1a1.408,1.408,0,0,0,1.267-.783l1.146-2.292a.705.705,0,0,0,.056-.156l.075-.317a.7.7,0,0,0,.019-.16v-2.882A2.117,2.117,0,0,0,32.224,218.812ZM8.5,228.916a2.125,2.125,0,1,1,2.125-2.125A2.127,2.127,0,0,1,8.5,228.916Zm13.7-8.5H9.208a.709.709,0,0,1-.625-1.042l1.516-2.833a.708.708,0,0,1,.625-.374h9.717a.709.709,0,0,1,.6.335l1.76,2.833a.708.708,0,0,1-.6,1.082Zm2.59,8.5a2.125,2.125,0,1,1,2.125-2.125A2.127,2.127,0,0,1,24.792,228.916Z" transform="translate(0 -202)" fill="#cccbce"/>
        <path id="Tracé_979" data-name="Tracé 979" d="M301.5,52.584a.708.708,0,0,0,.708-.708V50.459a.7.7,0,0,0-.708-.7,2.126,2.126,0,0,0,1.523-3.2.68.68,0,0,1-.107-.353.721.721,0,0,1,1.27-.415,2.142,2.142,0,0,0,1.41.832,2.1,2.1,0,0,0,1.57-.417,2.127,2.127,0,0,0,2.125,2.125.708.708,0,0,1,0,1.417.708.708,0,0,0-.708.708v1.417a.708.708,0,0,0,.708.708,3.542,3.542,0,0,0,.633-7.027,2.839,2.839,0,0,0-2.758-2.182,2.778,2.778,0,0,0-1.137.243,3.493,3.493,0,0,0-2.4-.951,3.546,3.546,0,0,0-3.542,3.542,3.457,3.457,0,0,0,.154,1.015,2.827,2.827,0,0,0,1.262,5.36Z" transform="translate(-278.834 -42.667)" fill="#cccbce"/>
      </g>
    </g>
  </g>
</svg>
