<svg xmlns="http://www.w3.org/2000/svg" width="38.265" height="26.347" viewBox="0 0 38.265 26.347">
  <g id="flood-risk" transform="translate(-0.001 -95.269)">
    <path id="Tracé_977" data-name="Tracé 977" d="M38.259,115.379v2.208a11.352,11.352,0,0,1-2.59-.938,6.739,6.739,0,0,0-3.246-.938h-.056a8.2,8.2,0,0,0-3.246.938,10.285,10.285,0,0,1-4.41,1.163,10.158,10.158,0,0,1-4.41-1.163,6.739,6.739,0,0,0-3.246-.938,8.2,8.2,0,0,0-3.246.938,12.664,12.664,0,0,1-2.59.938v-2.208c.494-.163.988-.388,1.482-.6a10.007,10.007,0,0,1,4.347-1.163,9.837,9.837,0,0,1,4.347,1.163,7.62,7.62,0,0,0,3.3.882,7.349,7.349,0,0,0,3.3-.882,10.572,10.572,0,0,1,4.41-1.163h.056a9.837,9.837,0,0,1,4.347,1.163A8.436,8.436,0,0,0,38.259,115.379ZM12.2,113.841a8.1,8.1,0,0,1-1.326.55l-.719.281v.776l-4.841-1.276-.281,1.1-.275.988a.652.652,0,0,1-.826.494l-3.409-.938a.633.633,0,0,1-.494-.826L.3,113.947l2.045-7.6a4.99,4.99,0,0,1,1.163-2.208l6.6-7.706a3.822,3.822,0,0,1,2.54-1.163,3.139,3.139,0,0,1,.776.056l12.06,3.246a3.8,3.8,0,0,1,2.477,2.7l1.87,9.971a6.075,6.075,0,0,1,.056,1.658,21.977,21.977,0,0,0-2.421.938,1.83,1.83,0,0,1-.444.219,2.333,2.333,0,0,0-1.658-1.82,2.195,2.195,0,0,0-2.7,1.539,1.206,1.206,0,0,0-.056.444c-.219-.106-.494-.219-.826-.388a11.171,11.171,0,0,0-4.791-1.27A11.253,11.253,0,0,0,12.2,113.841Zm-5.342-6.612a1.206,1.206,0,0,0-.444-.056H6.027a2,2,0,0,0-1.82,1.6,2.2,2.2,0,0,0,4.241,1.163A2.282,2.282,0,0,0,6.859,107.229Zm19.835,2.865-1.27-6.887a2.247,2.247,0,0,0-1.927-2.1l-9.364-2.54a2.8,2.8,0,0,0-.826-.163h-.281c-.6,0-1.045.332-1.658.988l-4.516,5.348Zm5.78,7.325h-.056a10.388,10.388,0,0,0-4.41,1.163,7.449,7.449,0,0,1-3.3.882,7.55,7.55,0,0,1-3.3-.882,9.288,9.288,0,0,0-4.347-1.163,9.837,9.837,0,0,0-4.347,1.163,14.721,14.721,0,0,1-1.482.6v2.208a12.432,12.432,0,0,0,2.59-.938,7.419,7.419,0,0,1,3.246-.938,7.4,7.4,0,0,1,3.246.938,10.309,10.309,0,0,0,4.41,1.163,9.434,9.434,0,0,0,4.41-1.163,7.419,7.419,0,0,1,3.246-.938h.056a7.371,7.371,0,0,1,3.246.938,11.534,11.534,0,0,0,2.59.938v-2.208a8.22,8.22,0,0,1-1.432-.6A9.945,9.945,0,0,0,32.473,117.418Z" fill="#cccbce"/>
  </g>
</svg>
