<svg xmlns="http://www.w3.org/2000/svg" width="24.279" height="30.115" viewBox="0 0 24.279 30.115">
  <g id="criminal-male-face" transform="translate(-8.99)">
    <path id="Tracé_966" data-name="Tracé 966" d="M33.269,8.756H31.308C31.308,3.92,26.751,0,21.13,0S10.951,3.92,10.951,8.756H8.99V12.72h1.728a19.606,19.606,0,0,0-.214,2.9c0,.028,0,.056,0,.084a2.157,2.157,0,0,0-.064.289,2.293,2.293,0,0,0,.118,1.11c.545,7.3,5.069,13.009,10.551,13.009,5.849,0,10.607-6.5,10.607-14.491a19.648,19.648,0,0,0-.214-2.9h1.766V8.756ZM21.11,28.908a8.115,8.115,0,0,1-6.339-3.487l.139.035c.139.029.312.059.516.084a6.3,6.3,0,0,0,.7.037,6.826,6.826,0,0,0,.827-.049c.147-.015.292-.038.44-.065s.3-.058.444-.093a6.828,6.828,0,0,0,1.646-.618,4.935,4.935,0,0,0,1.177-.859,3.17,3.17,0,0,0,.474-.607,3.184,3.184,0,0,0,.474.607,4.913,4.913,0,0,0,1.177.859,6.832,6.832,0,0,0,1.646.618c.148.035.292.07.444.093s.294.05.44.065a6.835,6.835,0,0,0,.827.049,6.472,6.472,0,0,0,.7-.037c.2-.024.377-.055.516-.084l.087-.021A8.1,8.1,0,0,1,21.11,28.908Zm6.459-3.645c-.053-.019-.115-.041-.185-.064l-.408-.149c-.151-.059-.315-.117-.482-.189-.085-.033-.171-.068-.257-.108s-.176-.072-.264-.115-.18-.077-.267-.122-.182-.082-.272-.129c-.182-.088-.364-.182-.551-.277s-.375-.194-.563-.3l-.568-.307c-.19-.1-.376-.207-.568-.305-.373-.2-.742-.394-1.079-.56-.251-.124-.486-.234-.683-.323h-.586c-.2.089-.431.2-.683.323-.337.166-.705.358-1.078.56-.192.1-.378.2-.568.305l-.568.307c-.188.1-.376.2-.563.3s-.369.189-.551.277c-.089.047-.183.086-.271.129s-.18.082-.268.122-.176.079-.263.115-.172.075-.257.108c-.167.072-.331.13-.482.189l-.408.149c-.084.028-.157.054-.216.075A15.158,15.158,0,0,1,12,18.882a7.45,7.45,0,0,0,3.26,1.263c2.707.4,5.129-.555,5.7-2.166.573,1.611,3,2.565,5.7,2.166a7.192,7.192,0,0,0,3.607-1.536A15.272,15.272,0,0,1,27.569,25.264Zm-1.9-11.85c-2.361.348-4.219,1.62-4.71,3.072-.492-1.453-2.348-2.724-4.71-3.072a6.739,6.739,0,0,0-4.48.741q.058-.729.17-1.434H30.282c.086.54.145,1.094.183,1.656A6.443,6.443,0,0,0,25.67,13.414Z" fill="#cccbce"/>
  </g>
</svg>
