<svg xmlns="http://www.w3.org/2000/svg" width="342" height="50" viewBox="0 0 342 50">
  <g id="Groupe_1183" data-name="Groupe 1183" transform="translate(-469 -540)">
    <g id="Rectangle_1632" data-name="Rectangle 1632" transform="translate(469 540)" fill="#f2f2f2" stroke="#adadad" stroke-width="1">
      <rect width="342" height="50" rx="4" stroke="none"/>
      <rect x="0.5" y="0.5" width="341" height="49" rx="3.5" fill="none"/>
    </g>
    <g id="Rectangle_1633" data-name="Rectangle 1633" transform="translate(479 556)" fill="#fff" stroke="#adadad" stroke-width="1">
      <rect width="18" height="18" stroke="none"/>
      <rect x="0.5" y="0.5" width="17" height="17" fill="none"/>
    </g>
    <text id="Je_ne_suis_pas_un_robot" data-name="Je ne suis pas un robot" transform="translate(519 572)" fill="#0b0b0b" font-size="17" font-family="Rawson-SemiBold, Rawson" font-weight="600"><tspan x="0" y="0">Je ne suis pas un robot</tspan></text>
    <g id="captcha" transform="translate(742.881 530)">
      <path id="Tracé_4239" data-name="Tracé 4239" d="M36.139,275.117h4.014c.084,0,.172-.005.256,0,.068.005.167-.042.2.031s-.068.115-.115.162c-1.018,1.023-2.036,2.046-3.064,3.059a.234.234,0,0,0-.037.371,6.49,6.49,0,0,0,4.291,2.694,5.808,5.808,0,0,0,3.184-.277,6.631,6.631,0,0,0,3.3-2.8c.037-.063.073-.12.115-.183.078.021.12.089.167.136.95.955,1.9,1.905,2.845,2.861.579.585,1.148,1.169,1.728,1.749.094.094.1.151.016.261a13.241,13.241,0,0,1-4.04,3.45,13,13,0,0,1-4.52,1.514,13.284,13.284,0,0,1-7.84-1.3,19.231,19.231,0,0,1-1.749-1.06,11.994,11.994,0,0,1-1.717-1.446,8.679,8.679,0,0,1-.658-.726c-.11-.136-.177-.157-.313-.016-.861.872-1.733,1.738-2.6,2.6a.459.459,0,0,1-.162.136.247.247,0,0,1-.031-.177Q29.4,280.728,29.4,275.3c0-.057.005-.12.01-.177Q32.785,275.114,36.139,275.117Z" transform="translate(0 -239.894)" fill="#aaabab"/>
      <path id="Tracé_4240" data-name="Tracé 4240" d="M281.51,22.119a11.93,11.93,0,0,1,3.216.365,13.12,13.12,0,0,1,7.005,4.359,1.369,1.369,0,0,0,.13.141q1.464-1.464,2.918-2.928a.408.408,0,0,1,.016.209V34.439c0,.224-.005.449.01.668.01.136-.031.177-.172.172-1.263-.01-2.532-.021-3.795-.021q-3.516,0-7.026.01h-.235a.334.334,0,0,1,.136-.188c1.034-1.034,2.067-2.072,3.106-3.1a.2.2,0,0,0,.026-.308,6.331,6.331,0,0,0-4.646-2.761,2.871,2.871,0,0,0-.7-.073C281.505,26.6,281.51,24.359,281.51,22.119Z" transform="translate(-238.94 -0.109)" fill="#1c3aa9"/>
      <path id="Tracé_4241" data-name="Tracé 4241" d="M42.917,22.01q0,3.359-.005,6.718v4.51c-.073-.021-.11-.084-.157-.136-1.039-1.039-2.083-2.078-3.116-3.116-.11-.11-.177-.125-.308-.037A6.363,6.363,0,0,0,36.564,34.6a2.774,2.774,0,0,0-.078.621q-3.359,0-6.718-.005a12.272,12.272,0,0,1,.449-3.456,12.994,12.994,0,0,1,4.249-6.65c.141-.12.12-.177.005-.292-.882-.861-1.759-1.743-2.631-2.62-.047-.047-.12-.084-.131-.162.042-.037.089-.021.136-.021Q37.31,22,42.781,22A1.187,1.187,0,0,0,42.917,22.01Z" transform="translate(-0.346)" fill="#4285f3"/>
    </g>
  </g>
</svg>
