<svg id="shield-3" xmlns="http://www.w3.org/2000/svg" width="52.26" height="62.096" viewBox="0 0 52.26 62.096">
  <g id="Groupe_638" data-name="Groupe 638" transform="translate(0 0)">
    <path id="Tracé_2559" data-name="Tracé 2559" d="M86.1,15.983c-.074-1.634-.074-3.193-.074-4.752A2.188,2.188,0,0,0,83.8,9C74.519,9,67.464,6.33,61.6.613a2.291,2.291,0,0,0-3.119,0C52.613,6.33,45.559,9,36.277,9a2.188,2.188,0,0,0-2.228,2.228c0,1.559,0,3.119-.074,4.752-.3,15.594-.743,36.979,25.321,45.964l.743.149.743-.149C86.771,52.963,86.4,31.651,86.1,15.983ZM58.257,37.592a2.4,2.4,0,0,1-1.559.594h-.074a2.09,2.09,0,0,1-1.559-.743l-6.906-7.648,3.341-2.97,5.421,6.015L68.95,21.4l3.044,3.267Z" transform="translate(-33.908 0)" fill="#7a774c"/>
  </g>
</svg>
