<svg xmlns="http://www.w3.org/2000/svg" xmlns:xlink="http://www.w3.org/1999/xlink" width="66" height="66" viewBox="0 0 66 66">
  <defs>
    <filter id="Ellipse_54" x="0" y="0" width="66" height="66" filterUnits="userSpaceOnUse">
      <feOffset dy="3" input="SourceAlpha"/>
      <feGaussianBlur stdDeviation="3" result="blur"/>
      <feFlood flood-opacity="0.161"/>
      <feComposite operator="in" in2="blur"/>
      <feComposite in="SourceGraphic"/>
    </filter>
  </defs>
  <g id="Groupe_580" data-name="Groupe 580" transform="translate(9.5 6.219)">
    <g transform="matrix(1, 0, 0, 1, -9.5, -6.22)" filter="url(#Ellipse_54)">
      <circle id="Ellipse_54-2" data-name="Ellipse 54" cx="24" cy="24" r="24" transform="translate(9 6)" fill="#7a774c"/>
    </g>
    <g id="support-4" transform="translate(12.801 11.705)">
      <g id="Groupe_61" data-name="Groupe 61">
        <path id="Tracé_473" data-name="Tracé 473" d="M37.482,9.952h-.06V8.492a8.492,8.492,0,0,0-16.984,0v1.46h-.358a2.427,2.427,0,0,0-2.324,2.5v3.725a2.354,2.354,0,0,0,2.293,2.413h2.236A.566.566,0,0,0,22.825,18c0-.011,0-.022,0-.034v-7.3c0-.358-.209-.715-.536-.715h-.656V8.492a7.3,7.3,0,1,1,14.6,0v1.46h-.656c-.328,0-.536.358-.536.715v7.3a.566.566,0,0,0,.5.623l.034,0h.685l-.06.089a4.708,4.708,0,0,1-3.784,1.877,2.95,2.95,0,0,0-5.84.566,2.98,2.98,0,0,0,2.98,2.95,3.069,3.069,0,0,0,2.145-.924,2.622,2.622,0,0,0,.715-1.43,5.9,5.9,0,0,0,4.738-2.354l.566-.834a2.029,2.029,0,0,0,2.086-2.056V12.753C39.806,11.471,38.853,9.952,37.482,9.952ZM21.631,17.4H20.081a1.162,1.162,0,0,1-1.133-1.19q0-.016,0-.032V12.455a1.235,1.235,0,0,1,1.132-1.311h1.549Zm9.207,4.916a1.758,1.758,0,0,1-1.281.566,1.818,1.818,0,0,1-1.788-1.758,1.758,1.758,0,0,1,3.516,0h0A1.579,1.579,0,0,1,30.838,22.317Zm7.777-5.84c0,.8-.775.924-1.132.924H36.231V11.144h1.251c.656,0,1.132.924,1.132,1.609Z" transform="translate(-17.756)" fill="#fbfbfb"/>
      </g>
    </g>
  </g>
</svg>
