<svg id="speech-bubbles-with-ellipsis" xmlns="http://www.w3.org/2000/svg" width="78.347" height="59.787" viewBox="0 0 78.347 59.787">
  <g id="Groupe_640" data-name="Groupe 640" transform="translate(0 0)">
    <path id="Tracé_2572" data-name="Tracé 2572" d="M55.874,28.438c0-7-4.9-13.121-12.2-16.429a19.43,19.43,0,0,1,.721,4.724,20.776,20.776,0,0,1,2.092,1.41c3.682,2.841,5.714,6.495,5.714,10.295s-2.024,7.453-5.714,10.292a25.089,25.089,0,0,1-15.291,4.831,26.9,26.9,0,0,1-10.937-2.243,41.475,41.475,0,0,1-6.31.742,28.8,28.8,0,0,0,17.244,5.414,30.481,30.481,0,0,0,11.88-2.345l8.981,4.586-1.815-9.169A16.561,16.561,0,0,0,55.874,28.438Z" transform="translate(22.473 10.072)" fill="#7a774c"/>
    <path id="Tracé_2573" data-name="Tracé 2573" d="M64.31,27.8a19.539,19.539,0,0,0-.723-4.722C60.45,11.914,47.57,3.554,32.159,3.554,14.4,3.554,0,14.658,0,28.356,0,34.35,2.755,39.844,7.344,44.133L4.978,56.075,16.685,50.1a39.687,39.687,0,0,0,15.473,3.056c.572,0,1.141-.01,1.705-.037a40.479,40.479,0,0,0,6.3-.739c13.883-2.745,24.146-12.46,24.146-24.026C64.315,28.168,64.312,27.983,64.31,27.8ZM16.991,32.441a4.679,4.679,0,1,1,4.68-4.677A4.678,4.678,0,0,1,16.991,32.441Zm15.168,0a4.679,4.679,0,1,1,4.68-4.677A4.678,4.678,0,0,1,32.159,32.441Zm15.168,0a4.679,4.679,0,1,1,4.68-4.677A4.68,4.68,0,0,1,47.327,32.441Z" transform="translate(0 -3.554)" fill="#7a774c"/>
  </g>
</svg>
