<svg xmlns="http://www.w3.org/2000/svg" width="973.875" height="400.274" viewBox="0 0 973.875 400.274">
  <g id="illustration-salama" transform="translate(-154.8 -385.149)">
    <path id="Tracé_800" data-name="Tracé 800" d="M1174.509,611.572c0,3.25-.066,6.665-.23,10.211-.033.657-.066,1.346-.1,2.036-.131,2.692-.328,5.45-.558,8.273-.066.657-.1,1.281-.164,1.937-.066.788-.131,1.576-.23,2.364-.328,3.349-.722,6.763-1.149,10.211-.1.689-.2,1.412-.3,2.1-.459,3.349-.952,6.763-1.543,10.211-.131.689-.23,1.412-.361,2.134-.591,3.382-1.215,6.8-1.9,10.21-.131.722-.3,1.445-.46,2.167-.558,2.692-1.182,5.384-1.805,8.109-.328,1.412-.69,2.824-1.051,4.235-.854,3.415-1.773,6.829-2.758,10.211-.2.722-.427,1.412-.624,2.1-1.018,3.447-2.1,6.862-3.283,10.211-.23.722-.492,1.412-.755,2.134-1.018,2.856-2.069,5.68-3.185,8.438-.591,1.51-1.215,3.021-1.871,4.5-1.51,3.513-3.086,6.927-4.76,10.211-.362.722-.723,1.412-1.084,2.134-1.9,3.579-3.874,6.993-5.975,10.211-.427.689-.886,1.346-1.346,2a87.852,87.852,0,0,1-8.044,10.178c-.919.985-1.839,1.937-2.791,2.857a50.427,50.427,0,0,1-14.708,10.178c-.394.164-.755.328-1.149.492a1.162,1.162,0,0,0-.3.131c-.755.3-1.543.591-2.3.821l-40.842.066-115.5.164-143.342-.853L754,771.625l-110.872-.657-334.914-2S246.1,732.195,246.1,668.37c0-.886,0-1.773.033-2.659.919-34.112,10.046-99.118,88.645-132.869q8.47-3.644,18.024-6.763,8.569-2.807,18.057-5.122c8.044-1.97,16.613-3.677,25.74-5.056.886-.131,1.806-.263,2.692-.394,4.367-.624,8.536-1.379,12.542-2.265,105.717-22.719,93.012-120.853,232.447-127.715a371.522,371.522,0,0,1,42.353.525c23.836,1.576,43.5,7.387,61.034,14.249,18.583,7.223,34.8,15.562,51.217,21.242l1.116.394c16.087,5.45,32.4,8.241,51.25,4.793.919-.164,1.839-.361,2.758-.558q31.321-6.648,58.637-9.915c.394-.033.755-.1,1.116-.131,43.8-5.187,80.142-4.2,110.347,1.609a11.171,11.171,0,0,1,1.116.23,205.75,205.75,0,0,1,35.786,10.276c3.02,1.182,5.975,2.43,8.831,3.743a.983.983,0,0,1,.263.131c.492.23.952.427,1.444.657.46.2.919.427,1.379.657.033.033.1.033.131.066,3.546,1.707,6.96,3.48,10.243,5.352,3.907,2.233,7.65,4.564,11.228,7.026,1.018.689,2.036,1.412,3.021,2.134a151.422,151.422,0,0,1,12.739,10.276c.788.722,1.576,1.412,2.331,2.134q5.269,4.925,9.948,10.243c.821.919,1.576,1.806,2.364,2.725q4.186,4.974,7.978,10.243c.525.722,1.018,1.412,1.51,2.134,2.331,3.349,4.5,6.763,6.566,10.243.459.755.886,1.51,1.346,2.265,1.871,3.283,3.677,6.6,5.351,9.981.624,1.248,1.248,2.528,1.839,3.808,1.051,2.2,2.068,4.432,3.02,6.7.821,1.871,1.609,3.776,2.364,5.68q2.02,5.072,3.841,10.244c.263.722.493,1.412.722,2.134.821,2.4,1.609,4.793,2.331,7.19.328,1.018.624,2.036.919,3.053.2.722.427,1.445.624,2.167.164.624.361,1.248.525,1.871.722,2.5,1.379,5.023,2.036,7.551.066.263.131.558.2.821.164.722.361,1.412.525,2.134.854,3.415,1.642,6.8,2.4,10.243.164.69.3,1.412.459,2.1.722,3.415,1.412,6.829,2.036,10.243.131.722.262,1.412.394,2.134.394,2.1.755,4.2,1.116,6.3.131.854.3,1.773.394,2.725.033.394.1.788.131,1.215.1.886.2,1.806.263,2.725.263,3.119.427,6.534.459,10.211A6.169,6.169,0,0,1,1174.509,611.572Z" transform="translate(-61.325 0)" fill="#d3eae9"/>
    <g id="Groupe_69" data-name="Groupe 69" transform="translate(184.71 487.797)">
      <path id="Tracé_801" data-name="Tracé 801" d="M1173.455,805.257v36.837c-.066.656-.1,1.28-.164,1.937-.066.788-.131,1.576-.23,2.364-.328,3.349-.722,6.763-1.149,10.21-.1.69-.2,1.412-.3,2.1-.459,3.349-.952,6.763-1.543,10.211-.131.689-.229,1.412-.361,2.134-.591,3.381-1.215,6.8-1.9,10.211-.131.722-.3,1.445-.459,2.167-.558,2.692-1.182,5.384-1.806,8.109-.328,1.412-.69,2.824-1.051,4.235-.854,3.414-1.773,6.829-2.758,10.211-.2.722-.427,1.411-.624,2.1-1.018,3.448-2.1,6.862-3.283,10.211-.23.722-.492,1.412-.755,2.134-1.018,2.856-2.068,5.68-3.185,8.438-.591,1.51-1.215,3.02-1.871,4.5-1.51,3.513-3.086,6.928-4.76,10.21-.361.722-.722,1.412-1.084,2.134-1.9,3.578-3.874,6.993-5.975,10.211-.427.69-.887,1.346-1.346,2a87.884,87.884,0,0,1-8.044,10.178c-.919.985-1.839,1.937-2.791,2.856-4.531,4.4-9.423,9.817-14.709,12.148-.394.164-.755-.657-1.149-.493-.1.033-.2.394-.3.459l-302.017.2-56.043-.328-110.872-.328-334.914-.033S245.9,942.2,245.9,878.373c0-.886,0-1.773.033-2.659.919-34.112,10.046-99.118,88.645-132.869v30.7H352.6V736.114q8.569-2.807,18.057-5.122c8.044-1.97,16.613-3.677,25.74-5.056.886-.131,1.806-.263,2.692-.394,4.367-.624,8.536-1.379,12.542-2.265v45.6h19.929V758.21l23.507.1V741.039H459.8v-3.414h.624v3.414h21.9v-3.414h.624v3.414h4.367v34.342h28.005v12.64h15.562v-7.354h14.446V751.545h7.19V737.953H553.6v13.592h17.236V726.1h1.707v25.477h11.425v-.361h-.033V748h.033v-3.053h-.033v-5.089h.033v-3.25h-.033v-5.089h.033v-3.25h-.033v-5.122h.033v-3.513h-.033v-5.089h.033v-4.465h-.033V704.99h.033v-3.382h3.382V697.8h.558v3.809h25.182V697.8h.558v3.809h4.6v26.626l3.25.033v-.033h-.033v-5.089h.033v-3.513h-.033v-5.089h.033v-3.513h-.033v-5.089h35.819c.263.131.558.263.821.394v29.056h22.325v38.183H698.45V702.987h3.94v-4.925h.69v4.925h14.249v-4.925h.722v4.925h20.159v-4.925h.722v4.925h12.706v-4.925h.689v4.925h5.22V768.88h19.929V758.21l23.507.1V741.039h4.728v-3.414h.624v3.414H828.1v-3.414h.624v3.414h4.367v34.342H861.1v12.64h15.562v-7.354H891.1V751.545h7.19V737.953h1.084v13.592h17.236V726.1h1.707v25.477h11.425v-.361h-.033V748h.033v-3.053h-.033v-5.089h.033v-3.25h-.033v-5.089h.033v-3.25h-.033v-5.122h.033v-3.513h-.033v-5.089h.033v-4.465h-.033V704.99h.033v-3.382h3.414V697.8h.558v3.809H958.9V697.8h.558v3.809h4.6v26.626l3.185.033h.033v-.033h-.033v-5.089h.033v-3.513h-.033v-5.089h.033v-3.513h-.033v-5.089h35.819c.263.131.558.263.821.394v29.056h37.461v38.183h18.024V702.987h3.907v-4.925H1064v4.925h14.249v-4.925h.689v4.925h20.159v-4.925h.689v4.925H1118.4V768.88h19.929V758.21l23.507.1v-4.334c.328,1.018.624,2.036.919,3.053.2.722.427,1.445.624,2.167.164.624.361,1.248.525,1.871.722,2.5,1.379,5.023,2.036,7.551.066.263.131.558.2.821.164.722.361,1.412.525,2.134.854,3.415,1.642,6.8,2.4,10.243.164.689.3,1.412.459,2.1.723,3.414,1.412,6.829,2.036,10.243.131.722.263,1.412.394,2.134.394,2.1.755,4.2,1.116,6.3C1173.225,803.419,1173.357,804.338,1173.455,805.257Z" transform="translate(-245.9 -697.8)" fill="#a9d8d1"/>
      <g id="Groupe_68" data-name="Groupe 68" transform="translate(337.803 3.808)">
        <rect id="Rectangle_534" data-name="Rectangle 534" width="45.078" height="11.163" transform="translate(128.699 1.412)" fill="#e2f2f1"/>
        <rect id="Rectangle_535" data-name="Rectangle 535" width="45.078" height="11.163" transform="translate(128.699 18.583)" fill="#e2f2f1"/>
        <rect id="Rectangle_536" data-name="Rectangle 536" width="45.078" height="11.163" transform="translate(128.699 36.147)" fill="#e2f2f1"/>
        <rect id="Rectangle_537" data-name="Rectangle 537" width="45.078" height="11.163" transform="translate(128.699 53.975)" fill="#e2f2f1"/>
        <rect id="Rectangle_538" data-name="Rectangle 538" width="45.078" height="11.163" transform="translate(128.699 71.179)" fill="#e2f2f1"/>
        <g id="Groupe_58" data-name="Groupe 58" transform="translate(346.011)">
          <rect id="Rectangle_539" data-name="Rectangle 539" width="21.012" height="6.796" fill="#e2f2f1"/>
          <rect id="Rectangle_540" data-name="Rectangle 540" width="21.012" height="6.796" transform="translate(0 10.44)" fill="#e2f2f1"/>
          <rect id="Rectangle_541" data-name="Rectangle 541" width="21.012" height="6.796" transform="translate(0 21.111)" fill="#e2f2f1"/>
          <rect id="Rectangle_542" data-name="Rectangle 542" width="21.012" height="6.796" transform="translate(0 31.912)" fill="#e2f2f1"/>
          <rect id="Rectangle_543" data-name="Rectangle 543" width="21.012" height="6.796" transform="translate(0 42.385)" fill="#e2f2f1"/>
        </g>
        <g id="Groupe_59" data-name="Groupe 59" transform="translate(346.011 53.876)">
          <rect id="Rectangle_544" data-name="Rectangle 544" width="21.012" height="6.796" fill="#e2f2f1"/>
          <rect id="Rectangle_545" data-name="Rectangle 545" width="21.012" height="6.796" transform="translate(0 10.44)" fill="#e2f2f1"/>
          <rect id="Rectangle_546" data-name="Rectangle 546" width="21.012" height="6.796" transform="translate(0 21.078)" fill="#e2f2f1"/>
          <rect id="Rectangle_547" data-name="Rectangle 547" width="21.012" height="6.796" transform="translate(0 31.912)" fill="#e2f2f1"/>
          <rect id="Rectangle_548" data-name="Rectangle 548" width="21.012" height="6.796" transform="translate(0 42.353)" fill="#e2f2f1"/>
        </g>
        <g id="Groupe_60" data-name="Groupe 60" transform="translate(383.406 4.432)">
          <rect id="Rectangle_549" data-name="Rectangle 549" width="22.522" height="6.796" fill="#e2f2f1"/>
          <rect id="Rectangle_550" data-name="Rectangle 550" width="22.522" height="6.796" transform="translate(0 10.44)" fill="#e2f2f1"/>
          <rect id="Rectangle_551" data-name="Rectangle 551" width="22.522" height="6.796" transform="translate(0 21.111)" fill="#e2f2f1"/>
          <rect id="Rectangle_552" data-name="Rectangle 552" width="22.522" height="6.796" transform="translate(0 31.945)" fill="#e2f2f1"/>
          <rect id="Rectangle_553" data-name="Rectangle 553" width="22.522" height="6.796" transform="translate(0 42.385)" fill="#e2f2f1"/>
        </g>
        <g id="Groupe_61" data-name="Groupe 61" transform="translate(383.406 57.718)">
          <rect id="Rectangle_554" data-name="Rectangle 554" width="22.522" height="6.796" fill="#e2f2f1"/>
          <rect id="Rectangle_555" data-name="Rectangle 555" width="22.522" height="6.796" transform="translate(0 10.44)" fill="#e2f2f1"/>
          <rect id="Rectangle_556" data-name="Rectangle 556" width="22.522" height="6.796" transform="translate(0 21.078)" fill="#e2f2f1"/>
          <rect id="Rectangle_557" data-name="Rectangle 557" width="22.522" height="6.796" transform="translate(0 31.912)" fill="#e2f2f1"/>
          <rect id="Rectangle_558" data-name="Rectangle 558" width="22.522" height="6.796" transform="translate(0 42.353)" fill="#e2f2f1"/>
        </g>
        <g id="Groupe_62" data-name="Groupe 62" transform="translate(383.406 112.054)">
          <rect id="Rectangle_559" data-name="Rectangle 559" width="22.522" height="6.796" fill="#e2f2f1"/>
          <rect id="Rectangle_560" data-name="Rectangle 560" width="22.522" height="6.796" transform="translate(0 10.44)" fill="#e2f2f1"/>
          <rect id="Rectangle_561" data-name="Rectangle 561" width="22.522" height="6.796" transform="translate(0 21.111)" fill="#e2f2f1"/>
          <rect id="Rectangle_562" data-name="Rectangle 562" width="22.522" height="6.796" transform="translate(0 31.945)" fill="#e2eefd"/>
          <rect id="Rectangle_563" data-name="Rectangle 563" width="22.522" height="6.796" transform="translate(0 42.385)" fill="#e2eefd"/>
        </g>
        <rect id="Rectangle_564" data-name="Rectangle 564" width="41.039" height="11.163" transform="translate(493.621 1.412)" fill="#e2f2f1"/>
        <rect id="Rectangle_565" data-name="Rectangle 565" width="41.039" height="11.163" transform="translate(493.621 18.583)" fill="#e2f2f1"/>
        <rect id="Rectangle_566" data-name="Rectangle 566" width="41.039" height="11.163" transform="translate(493.621 36.147)" fill="#e2f2f1"/>
        <rect id="Rectangle_567" data-name="Rectangle 567" width="41.039" height="11.163" transform="translate(493.621 53.975)" fill="#e2f2f1"/>
        <rect id="Rectangle_568" data-name="Rectangle 568" width="41.039" height="11.163" transform="translate(493.621 71.179)" fill="#e2f2f1"/>
        <g id="Groupe_63" data-name="Groupe 63">
          <rect id="Rectangle_569" data-name="Rectangle 569" width="22.522" height="6.796" fill="#e2f2f1"/>
          <rect id="Rectangle_570" data-name="Rectangle 570" width="22.522" height="6.796" transform="translate(0 10.44)" fill="#e2f2f1"/>
          <rect id="Rectangle_571" data-name="Rectangle 571" width="22.522" height="6.796" transform="translate(0 21.111)" fill="#e2f2f1"/>
          <rect id="Rectangle_572" data-name="Rectangle 572" width="22.522" height="6.796" transform="translate(0 31.912)" fill="#e2f2f1"/>
          <rect id="Rectangle_573" data-name="Rectangle 573" width="22.522" height="6.796" transform="translate(0 42.385)" fill="#e2f2f1"/>
        </g>
        <g id="Groupe_64" data-name="Groupe 64" transform="translate(0 53.876)">
          <rect id="Rectangle_574" data-name="Rectangle 574" width="22.522" height="6.796" fill="#e2f2f1"/>
          <rect id="Rectangle_575" data-name="Rectangle 575" width="22.522" height="6.796" transform="translate(0 10.44)" fill="#e2f2f1"/>
          <rect id="Rectangle_576" data-name="Rectangle 576" width="22.522" height="6.796" transform="translate(0 21.078)" fill="#e2f2f1"/>
          <rect id="Rectangle_577" data-name="Rectangle 577" width="22.522" height="6.796" transform="translate(0 31.912)" fill="#e2f2f1"/>
          <rect id="Rectangle_578" data-name="Rectangle 578" width="22.522" height="6.796" transform="translate(0 42.353)" fill="#e2f2f1"/>
        </g>
        <g id="Groupe_65" data-name="Groupe 65" transform="translate(38.15 4.432)">
          <rect id="Rectangle_579" data-name="Rectangle 579" width="25.609" height="6.796" fill="#e2f2f1"/>
          <rect id="Rectangle_580" data-name="Rectangle 580" width="25.609" height="6.796" transform="translate(0 10.44)" fill="#e2f2f1"/>
          <rect id="Rectangle_581" data-name="Rectangle 581" width="25.609" height="6.796" transform="translate(0 21.111)" fill="#e2f2f1"/>
          <rect id="Rectangle_582" data-name="Rectangle 582" width="25.609" height="6.796" transform="translate(0 31.945)" fill="#e2f2f1"/>
          <rect id="Rectangle_583" data-name="Rectangle 583" width="25.609" height="6.796" transform="translate(0 42.385)" fill="#e2f2f1"/>
        </g>
        <g id="Groupe_66" data-name="Groupe 66" transform="translate(38.15 57.718)">
          <rect id="Rectangle_584" data-name="Rectangle 584" width="25.609" height="6.796" fill="#e2f2f1"/>
          <rect id="Rectangle_585" data-name="Rectangle 585" width="25.609" height="6.796" transform="translate(0 10.44)" fill="#e2f2f1"/>
          <rect id="Rectangle_586" data-name="Rectangle 586" width="25.609" height="6.796" transform="translate(0 21.078)" fill="#e2f2f1"/>
          <rect id="Rectangle_587" data-name="Rectangle 587" width="25.609" height="6.796" transform="translate(0 31.912)" fill="#e2f2f1"/>
          <rect id="Rectangle_588" data-name="Rectangle 588" width="25.609" height="6.796" transform="translate(0 42.353)" fill="#e2f2f1"/>
        </g>
        <g id="Groupe_67" data-name="Groupe 67" transform="translate(38.15 112.054)">
          <rect id="Rectangle_589" data-name="Rectangle 589" width="25.609" height="6.796" fill="#e2f2f1"/>
          <rect id="Rectangle_590" data-name="Rectangle 590" width="25.609" height="6.796" transform="translate(0 10.44)" fill="#e2f2f1"/>
          <rect id="Rectangle_591" data-name="Rectangle 591" width="25.609" height="6.796" transform="translate(0 21.111)" fill="#e2f2f1"/>
          <rect id="Rectangle_592" data-name="Rectangle 592" width="25.609" height="6.796" transform="translate(0 31.945)" fill="#e2f2f1"/>
          <rect id="Rectangle_593" data-name="Rectangle 593" width="25.609" height="6.796" transform="translate(0 42.385)" fill="#e2f2f1"/>
        </g>
      </g>
    </g>
    <path id="Tracé_802" data-name="Tracé 802" d="M1306.5,550.96s7.42-12.246,25.116-10.867c0,0,25.707-20.388,53.154-2.725,0,0,29.154-4.367,50.758,3.775,14.413,5.45,19.14,11.163,19.14,11.163Z" transform="translate(-773.58 -97.406)" fill="#f8fcff"/>
    <path id="Tracé_803" data-name="Tracé 803" d="M1789.3,669.5s4.793-8.306,16.284-7.387c0,0,16.678-13.855,34.44-1.839,0,0,18.878-2.987,32.9,2.594,9.324,3.71,12.41,7.584,12.41,7.584Z" transform="translate(-1097.87 -181.502)" fill="#f8fcff"/>
    <path id="Tracé_804" data-name="Tracé 804" d="M2202,558.348a15.362,15.362,0,0,1,14.84-7.19s15.168-13.494,31.354-1.806c0,0,17.2-2.889,29.942,2.5,8.5,3.612,11.295,7.387,11.295,7.387Z" transform="translate(-1375.074 -107.093)" fill="#f8fcff"/>
    <g id="Groupe_70" data-name="Groupe 70" transform="translate(439.547 432.772)">
      <rect id="Rectangle_594" data-name="Rectangle 594" width="6.665" height="302.739" transform="translate(12.673 28.662)" fill="#063a39"/>
      <path id="Tracé_805" data-name="Tracé 805" d="M1060.945,1390.911s-2.5,2.2-9.423,2.2c-6.534,0-9.422-2.2-9.422-2.2V1319.8a8.883,8.883,0,0,1,8.9-8.9h.624a9.352,9.352,0,0,1,9.357,9.357v70.654Z" transform="translate(-1035.534 -1054.584)" fill="#063a39"/>
      <path id="Tracé_806" data-name="Tracé 806" d="M1049.514,624.131h-22.851a4.554,4.554,0,0,1-4.564-4.563v-84.8a4.554,4.554,0,0,1,4.564-4.564h22.883a4.554,4.554,0,0,1,4.564,4.564v84.771A4.61,4.61,0,0,1,1049.514,624.131Z" transform="translate(-1022.1 -530.2)" fill="#063a39"/>
      <circle id="Ellipse_1" data-name="Ellipse 1" cx="12.279" cy="12.279" r="12.279" transform="translate(1.306 37.091) rotate(-13.628)" fill="#7a774c"/>
      <circle id="Ellipse_2" data-name="Ellipse 2" cx="12.279" cy="12.279" r="12.279" transform="translate(1.94 83.925) rotate(-80.055)" fill="#7a774c"/>
      <circle id="Ellipse_3" data-name="Ellipse 3" cx="12.279" cy="12.279" r="12.279" transform="matrix(0.162, -0.987, 0.987, 0.162, 2.033, 28.117)" fill="#7a774c"/>
    </g>
    <path id="Tracé_807" data-name="Tracé 807" d="M1857.8,1389.092h276.408l93.34-8.4s-16.711-41.63-21.241-42.254c-4.564-.624-339.741,0-339.741,0Z" transform="translate(-1143.88 -640.12)" fill="#0f4947"/>
    <path id="Tracé_808" data-name="Tracé 808" d="M2204.642,1240.159c-6.9,2.823-48.459,3.447-48.459,3.447s.952-50.954-41.893-45.012-35.327,48.23-35.327,48.23l-205.918,3.677s3.349-53.713-42.123-48.065c-37.756,4.7-28.071,47.869-28.071,47.869-19.5,1.018-29.942-1.937-35.49-4.99h0c-4.137-5.844-1.74-9.259-1.477-9.883.23-.591-.591-10.572-.722-11.984-.066-.82,1.674-2.889,3.25-4.531a3.743,3.743,0,0,0,.2-4.892l-2.069-2.528a9.9,9.9,0,0,1-1.379-10.277l4.1-9.356h0c13.329-22.916,117.963-29.187,117.963-29.187,15.891-9.127,29.056-15.923,39.365-20.848,16.449-7.88,35.2-15.53,53.318-17.335,49.116-4.859,89.5.656,99.381,2.265,11.556,1.872,69.733,27.185,74.1,29.385s40.087,5.155,44.651,5.713c4.6.558,4.465,5.154,4.465,5.154l.625,4.071,2.4,15.5.591,3.776c3.349,1.674,3.349,6.435,3.349,6.435S2211.536,1237.335,2204.642,1240.159Z" transform="translate(-1081.083 -495.291)" fill="#1f6666"/>
    <g id="Groupe_76" data-name="Groupe 76" transform="translate(711.064 695.72)">
      <circle id="Ellipse_4" data-name="Ellipse 4" cx="31.715" cy="31.715" r="31.715" transform="translate(0 44.852) rotate(-45)" fill="#0f4947"/>
      <g id="Groupe_71" data-name="Groupe 71" transform="translate(20.06 20.059)">
        <path id="Tracé_809" data-name="Tracé 809" d="M1934.988,1441.775a24.787,24.787,0,1,1,24.788-24.787A24.828,24.828,0,0,1,1934.988,1441.775Zm0-47.309a22.489,22.489,0,1,0,22.489,22.489A22.5,22.5,0,0,0,1934.988,1394.466Z" transform="translate(-1910.2 -1392.2)" fill="#c4e8e4"/>
      </g>
      <g id="Groupe_75" data-name="Groupe 75" transform="translate(21.997 21.044)">
        <g id="Groupe_72" data-name="Groupe 72" transform="translate(17.795)">
          <path id="Tracé_810" data-name="Tracé 810" d="M1979.592,1442.674h-8.865l2.823-24.361-3.25-23.113,10.145.624-3.381,22.49Z" transform="translate(-1970.3 -1395.2)" fill="#c4e8e4"/>
        </g>
        <g id="Groupe_73" data-name="Groupe 73" transform="translate(0 7.453)">
          <path id="Tracé_811" data-name="Tracé 811" d="M1920.532,1449.681,1916.1,1442l22.489-9.718,18.419-14.38,4.531,9.127-21.176,8.306Z" transform="translate(-1916.1 -1417.9)" fill="#c4e8e4"/>
        </g>
        <g id="Groupe_74" data-name="Groupe 74" transform="translate(0.854 7.19)">
          <path id="Tracé_812" data-name="Tracé 812" d="M1918.7,1424.52l4.892-7.42,18.78,15.759,21.111,9.981-6.107,8.141-16.941-15.2Z" transform="translate(-1918.7 -1417.1)" fill="#c4e8e4"/>
        </g>
        <path id="Tracé_813" data-name="Tracé 813" d="M1960.4,1450.573a8.273,8.273,0,1,1,8.274,8.274A8.281,8.281,0,0,1,1960.4,1450.573Z" transform="translate(-1945.856 -1426.837)" fill="#c4e8e4"/>
      </g>
    </g>
    <g id="Groupe_82" data-name="Groupe 82" transform="translate(998.96 702.473)">
      <circle id="Ellipse_5" data-name="Ellipse 5" cx="31.715" cy="31.715" r="31.715" transform="translate(0 61.73) rotate(-76.714)" fill="#0f4947"/>
      <g id="Groupe_77" data-name="Groupe 77" transform="translate(13.333 13.306)">
        <path id="Tracé_814" data-name="Tracé 814" d="M2791.388,1441.775a24.787,24.787,0,1,1,24.787-24.787A24.828,24.828,0,0,1,2791.388,1441.775Zm0-47.309a22.489,22.489,0,1,0,22.489,22.489A22.5,22.5,0,0,0,2791.388,1394.466Z" transform="translate(-2766.6 -1392.2)" fill="#c4e8e4"/>
      </g>
      <g id="Groupe_81" data-name="Groupe 81" transform="translate(15.237 14.291)">
        <g id="Groupe_78" data-name="Groupe 78" transform="translate(17.828)">
          <path id="Tracé_815" data-name="Tracé 815" d="M2835.992,1442.674h-8.9l2.856-24.361L2826.7,1395.2l10.145.624-3.381,22.49Z" transform="translate(-2826.7 -1395.2)" fill="#c4e8e4"/>
        </g>
        <g id="Groupe_79" data-name="Groupe 79" transform="translate(0 7.453)">
          <path id="Tracé_816" data-name="Tracé 816" d="M2776.865,1449.681,2772.4,1442l22.522-9.718,18.385-14.38,4.564,9.127-21.209,8.306Z" transform="translate(-2772.4 -1417.9)" fill="#c4e8e4"/>
        </g>
        <g id="Groupe_80" data-name="Groupe 80" transform="translate(0.887 7.19)">
          <path id="Tracé_817" data-name="Tracé 817" d="M2775.1,1424.52l4.892-7.42,18.781,15.759,21.11,9.981-6.106,8.141-16.94-15.2Z" transform="translate(-2775.1 -1417.1)" fill="#c4e8e4"/>
        </g>
        <path id="Tracé_818" data-name="Tracé 818" d="M2816.8,1450.573a8.274,8.274,0,1,1,8.273,8.274A8.281,8.281,0,0,1,2816.8,1450.573Z" transform="translate(-2802.223 -1426.837)" fill="#c4e8e4"/>
      </g>
    </g>
    <path id="Tracé_819" data-name="Tracé 819" d="M1811.485,1336.284l-8.142,8.833a6.173,6.173,0,0,1-4.531,2H1773.86a1.913,1.913,0,0,1-1.674-2.856l.722-1.281a19.459,19.459,0,0,1,3.218-4.235h0a18.939,18.939,0,0,1,13.3-5.45h20.75A1.762,1.762,0,0,1,1811.485,1336.284Z" transform="translate(-1086.205 -636.856)" fill="#e2f2f1"/>
    <path id="Tracé_820" data-name="Tracé 820" d="M1785.007,1467.7h-7.092a6.515,6.515,0,0,0-5.647,3.316l-.23.427a.67.67,0,0,0,.591.984h8.536a2,2,0,0,0,1.543-.689l2.79-3.02A.63.63,0,0,0,1785.007,1467.7Z" transform="translate(-1086.223 -727.133)" fill="#0f4947"/>
    <path id="Tracé_821" data-name="Tracé 821" d="M2631.725,1176.09l-105.849,2.528a3.674,3.674,0,0,1-3.776-3.677v-24.394a3.454,3.454,0,0,1,3.48-3.447c45.145.624,60.606,1.871,69.866,5.089,8.174,2.823,27.315,14.445,37.2,20.322A1.919,1.919,0,0,1,2631.725,1176.09Z" transform="translate(-1590.08 -511.79)" fill="#c4e8e4"/>
    <path id="Tracé_822" data-name="Tracé 822" d="M2292.648,1146.583c1.706.032,3.381.032,5.055.066v31.813l-102.105,2.43a1.332,1.332,0,0,1-.789-2.43C2206.729,1170.386,2246.683,1146.057,2292.648,1146.583Z" transform="translate(-1369.853 -511.438)" fill="#c4e8e4"/>
    <path id="Tracé_823" data-name="Tracé 823" d="M2854.766,1226.432h-.065V1222c.361.23.721.427,1.051.624A2.049,2.049,0,0,1,2854.766,1226.432Z" transform="translate(-1813.483 -562.1)" fill="#c4e8e4"/>
    <path id="Tracé_824" data-name="Tracé 824" d="M2206.507,1218.5l3.118,10.309-17.039.394a1.021,1.021,0,0,1-.625-1.839C2195.837,1224.607,2202.961,1219.682,2206.507,1218.5Z" transform="translate(-1368.057 -559.75)" fill="#2c3a64"/>
    <g id="Groupe_83" data-name="Groupe 83" transform="translate(822.214 634.289)">
      <path id="Tracé_825" data-name="Tracé 825" d="M2189.24,1180.012a1.546,1.546,0,0,1-1.51-1.116,1.588,1.588,0,0,1,.591-1.805l.362-.23c.36-.263.787-.526,1.247-.854.361-.262.788-.525,1.215-.788l.656-.427c.493-.328,1.019-.656,1.544-1.018.394-.263.787-.493,1.213-.755l.067-.033.2-.1c.361-.23.722-.46,1.116-.689l.1-.066c.131-.066.262-.164.393-.23.2-.131.395-.23.592-.361.3-.164.559-.328.854-.525.82-.493,1.707-1.018,2.627-1.543.295-.164.557-.329.853-.493.591-.328,1.182-.656,1.772-1.018h0l.427-.23c1.215-.689,2.463-1.346,3.71-2l.394-.2c.2-.1.36-.2.558-.3,2.331-1.215,4.76-2.43,7.157-3.579l.756-.361c.755-.361,1.51-.722,2.3-1.05.263-.131.525-.23.789-.361l1.575-.69.788-.361c.788-.361,1.641-.722,2.593-1.116.493-.2.985-.394,1.478-.624,3.349-1.379,6.729-2.659,10.112-3.841l.722-.263c.263-.1.558-.2.821-.3l1.051-.361c.3-.1.557-.2.854-.3h.033l.886-.3c.558-.164,1.083-.361,1.642-.525.362-.131.754-.23,1.116-.361.591-.164,1.149-.361,1.74-.525l.985-.262c.623-.164,1.214-.362,1.838-.526,1.214-.328,2.462-.656,3.677-.952l.066-.033a1.172,1.172,0,0,1,.328-.065c.527-.132,1.051-.263,1.609-.394.329-.066.624-.164.952-.23l.229-.066c.23-.066.493-.1.723-.164a8.02,8.02,0,0,0,.952-.23l.984-.2.985-.2.985-.2h.066c.295-.066.624-.132.919-.2a9.122,9.122,0,0,1,.92-.164c.361-.065.689-.131,1.051-.2a5.1,5.1,0,0,0,.688-.131l.328-.066c.657-.1,1.347-.23,2-.328.328-.065.657-.1,1.018-.164H2266c.591-.1,1.181-.164,1.773-.263,1.116-.164,2.2-.3,3.283-.427h.065c.3-.033.624-.065.92-.1.2-.032.427-.032.656-.065a4.836,4.836,0,0,1,.69-.066,6.41,6.41,0,0,1,.755-.065c.327-.033.689-.065,1.051-.1a9.816,9.816,0,0,1,.985-.066c.262-.033.525-.033.787-.066l1.478-.1c.3-.033.591-.033.886-.066h.131c.329-.033.656-.033.985-.066.263,0,.524-.033.788-.033h.033c.23,0,.46-.033.69-.033l.591-.032a4.778,4.778,0,0,0,.689-.033,3.1,3.1,0,0,1,2.4.952,3.251,3.251,0,0,1,1.018,2.364v26.364a4.093,4.093,0,0,1-3.972,4.071l-93.34,2.2C2189.273,1180.012,2189.24,1180.012,2189.24,1180.012Zm15.4-11.031-.59.328c-.658.361-1.314.755-1.97,1.116-.3.164-.592.328-.854.493-.918.525-1.772,1.051-2.593,1.543-.3.164-.558.328-.854.525-.2.131-.394.23-.591.361a3.537,3.537,0,0,0-.361.23l-.1.066c-.394.23-.756.46-1.116.689l-.23.131c-.427.263-.821.525-1.215.755-.558.361-1.051.689-1.543.985l-.656.427q-.641.443-1.183.788c-.459.3-.853.591-1.213.821l-.165.132,17.532-.427,75.611-1.806a2.42,2.42,0,0,0,2.331-2.4v-26.364a1.563,1.563,0,0,0-.493-1.182,1.536,1.536,0,0,0-1.214-.46,4.828,4.828,0,0,0-.69.033l-.591.032c-.229,0-.46.033-.689.033h-.033c-.262,0-.526.033-.788.033a8.634,8.634,0,0,0-.952.065h-.132a7.416,7.416,0,0,0-.853.066l-1.478.1c-.262.033-.492.033-.754.066-.362.032-.69.065-.985.065-.361.033-.689.066-1.018.1-.262.033-.525.033-.754.065s-.46.033-.69.066-.46.033-.657.065c-.295.033-.59.066-.918.1h-.066c-1.084.131-2.167.263-3.25.427-.591.066-1.182.164-1.74.263h-.033c-.329.065-.656.1-.985.164-.657.1-1.313.23-1.969.328l-.328.066a3.881,3.881,0,0,0-.657.131c-.362.066-.689.131-1.051.2a8.864,8.864,0,0,1-.919.164c-.3.066-.624.131-.92.2h-.065c-.329.066-.656.132-.953.2l-.984.2c-.329.066-.658.131-.953.2a8.051,8.051,0,0,0-.952.229c-.231.066-.493.1-.723.164l-.229.066c-.329.065-.624.131-.952.23l-1.576.394a.962.962,0,0,1-.295.066l-.067.033c-1.214.3-2.462.624-3.644.952-.624.164-1.215.328-1.806.493l-.951.263c-.56.164-1.15.328-1.708.526-.362.1-.756.229-1.117.328-.558.164-1.083.328-1.608.525l-.886.3h-.033a8.389,8.389,0,0,1-.854.262l-1.051.361c-.263.1-.558.2-.82.3l-.723.263c-3.349,1.149-6.73,2.462-10.014,3.808-.492.2-.985.394-1.477.624-.952.394-1.773.755-2.562,1.116l-.788.361-1.576.689c-.262.132-.525.23-.755.361-.787.361-1.543.69-2.265,1.05l-.755.362q-3.6,1.723-7.092,3.546c-.2.1-.361.2-.558.3l-.394.2A30.465,30.465,0,0,0,2204.638,1168.981Z" transform="translate(-2187.647 -1143.994)" fill="#0f4947"/>
    </g>
    <g id="Groupe_84" data-name="Groupe 84" transform="translate(1010.454 642.373)">
      <path id="Tracé_826" data-name="Tracé 826" d="M2763.5,1192.119a2.335,2.335,0,0,1-1.675-.689,2.7,2.7,0,0,1-.821-1.97v-17.795c0-1.018.165-2.3.986-2.823a3.17,3.17,0,0,1,2.758.262c.886.427,1.477.723,1.805.92.033.033.1.033.132.065l.361.2c4.433,2.429,10.736,6.238,18.78,11.327.328.23.69.427,1.018.657.821.525,1.609,1.018,2.364,1.51l2.824,1.806c.493.329.952.624,1.412.92.066.033.131.1.2.131l.065.033a2.6,2.6,0,0,1,1.051,2.889,2.407,2.407,0,0,1-2.232,1.805h-.3l-28.629.755Zm.164-21.8a1.249,1.249,0,0,0-.558.164,1.349,1.349,0,0,0-.624,1.182v17.795a1.214,1.214,0,0,0,.361.886.889.889,0,0,0,.656.263l28.925-.755a.873.873,0,0,0,.821-.722,1.088,1.088,0,0,0-.427-1.248l-.065-.032c-.065-.033-.131-.1-.2-.132-.46-.3-.919-.591-1.411-.919l-2.824-1.805c-.755-.493-1.543-.986-2.364-1.511-.328-.23-.656-.427-1.017-.657-7.979-5.089-14.282-8.864-18.681-11.294l-.362-.2c-.032-.033-.065-.033-.1-.066-.328-.164-.919-.493-1.773-.887A1.023,1.023,0,0,0,2763.659,1170.319Z" transform="translate(-2761 -1168.618)" fill="#0f4947"/>
    </g>
    <path id="Tracé_827" data-name="Tracé 827" d="M2206.507,1218.5l3.118,10.309-17.039.394a1.021,1.021,0,0,1-.625-1.839C2195.837,1224.607,2202.961,1219.682,2206.507,1218.5Z" transform="translate(-1368.057 -559.75)" fill="#565337"/>
    <g id="Groupe_85" data-name="Groupe 85" transform="translate(931.166 634.422)">
      <path id="Tracé_828" data-name="Tracé 828" d="M2524.031,1177.626a4.531,4.531,0,0,1-3.152-1.281,4.464,4.464,0,0,1-1.379-3.25V1148.7a4.316,4.316,0,0,1,4.334-4.3c46.587.657,61,1.707,70.161,5.155l.526.2v26.167l-70.392,1.674A.119.119,0,0,1,2524.031,1177.626Zm-.262-31.518a2.584,2.584,0,0,0-1.839.755,2.616,2.616,0,0,0-.788,1.839v24.394a2.748,2.748,0,0,0,.854,2.036,2.845,2.845,0,0,0,2.068.821l68.781-1.642v-23.376c-8.9-3.152-24.163-4.2-69.045-4.826Z" transform="translate(-2519.5 -1144.4)" fill="#0f4947"/>
    </g>
    <path id="Tracé_829" data-name="Tracé 829" d="M3035.746,1285.6h-19.928a9.6,9.6,0,0,1-7.584-3.677l-7.552-9.587a1.375,1.375,0,0,1,1.084-2.232h31.583Z" transform="translate(-1911.334 -594.408)" fill="#a9453d"/>
    <g id="Groupe_86" data-name="Groupe 86" transform="translate(925.745 634.926)">
      <rect id="Rectangle_595" data-name="Rectangle 595" width="106.801" height="0.821" transform="translate(0 106.79) rotate(-89.339)" fill="#0f4947"/>
    </g>
    <g id="Groupe_87" data-name="Groupe 87" transform="translate(791.544 740.118)">
      <rect id="Rectangle_596" data-name="Rectangle 596" width="206.05" height="0.821" transform="translate(0 4.121) rotate(-1.146)" fill="#0f4947"/>
    </g>
    <path id="Tracé_830" data-name="Tracé 830" d="M2423.322,1306.936c0,1.116-5.023,2.036-11.26,2.036s-11.262-.919-11.262-2.036,5.023-2.036,11.262-2.036S2423.322,1305.787,2423.322,1306.936Z" transform="translate(-1508.605 -617.783)" fill="#0f4947"/>
    <path id="Tracé_831" data-name="Tracé 831" d="M2742.622,1306.934c0,1.116-5.022,2.036-11.262,2.036-6.2,0-11.26-.92-11.26-2.036s5.024-2.035,11.26-2.035C2737.566,1304.865,2742.622,1305.785,2742.622,1306.934Z" transform="translate(-1723.073 -617.782)" fill="#0f4947"/>
    <g id="Groupe_88" data-name="Groupe 88" transform="translate(988.72 664.332)">
      <path id="Tracé_832" data-name="Tracé 832" d="M2695.621,1311.734l-.821-.033c.59-10.6,3.709-19.567,9.356-26.593a44.145,44.145,0,0,1,18.091-13.1,68.813,68.813,0,0,1,25.05-4.76V1235.5h.821v32.6l-.427-.033a67.6,67.6,0,0,0-25.182,4.695,43.6,43.6,0,0,0-17.761,12.87C2699.266,1292.528,2696.178,1301.327,2695.621,1311.734Z" transform="translate(-2694.8 -1235.5)" fill="#0f4947"/>
    </g>
    <g id="Groupe_89" data-name="Groupe 89" transform="translate(816.605 668.567)">
      <path id="Tracé_833" data-name="Tracé 833" d="M2170.608,1323.945c-.328-27.546,1.214-46.588,2.561-57.75a138.655,138.655,0,0,1,3.021-17.795l.788.23c-.066.23-6.172,22.719-5.548,75.283Z" transform="translate(-2170.564 -1248.4)" fill="#1d2949"/>
    </g>
    <path id="Tracé_834" data-name="Tracé 834" d="M1788.4,1358.172H1773.86a1.913,1.913,0,0,1-1.674-2.857l.722-1.28a19.453,19.453,0,0,1,3.218-4.235h0l8.8,1.445-3.48,3.808,4.17.854Z" transform="translate(-1086.205 -647.942)" fill="#0f4947"/>
    <g id="Groupe_90" data-name="Groupe 90" transform="translate(696.412 666.236)">
      <path id="Tracé_835" data-name="Tracé 835" d="M1805.566,1261.787a1.137,1.137,0,0,1-.886-.46,1.069,1.069,0,0,1,.263-1.51c.065-.066,1.773-1.247,7.256-4.6a31.6,31.6,0,0,1,14.873-4.465c2.232-.164,4.432-3.382,5.746-5.319A17.171,17.171,0,0,1,1834,1243.8c.525-.558,1.05-1.149,40.875-1.9,19.469-.361,43.468-.591,39.234-.591h4.432c.591,0,.624,1.412.722,2,1.313,7.19-6.468,3.611-7.092,3.611-29.712.328-72.722-2.331-76.76-1.477-.23.3-.525.723-.854,1.215-1.642,2.4-4.1,6.041-7.387,6.271a29.977,29.977,0,0,0-13.921,4.17c-5.384,3.283-7.124,4.5-7.124,4.531A.869.869,0,0,1,1805.566,1261.787Z" transform="translate(-1804.474 -1241.3)" fill="#0f4947"/>
    </g>
    <path id="Tracé_836" data-name="Tracé 836" d="M2247.465,1238.179h-13.231a4.351,4.351,0,0,1-4.334-4.334v-3.612a4.35,4.35,0,0,1,4.334-4.333h13.231a4.351,4.351,0,0,1,4.334,4.333v3.612A4.33,4.33,0,0,1,2247.465,1238.179Z" transform="translate(-1393.814 -564.72)" fill="#0f4947"/>
    <path id="Tracé_837" data-name="Tracé 837" d="M257.5,1384.592H533.908l93.34-8.405s-16.711-41.63-21.242-42.254c-4.563-.624-339.74,0-339.74,0Z" transform="translate(-68.982 -637.098)" fill="#0f4947"/>
    <path id="Tracé_838" data-name="Tracé 838" d="M601.8,1198.3c-.985,3.382-2.791,4.1-2.791,11.426,0,2.856.657,6.467-.788,9.652-.624,1.379-4.5,3.677-3.414,8.274,0,0-6.4,4.957-6.665,5.581a38.328,38.328,0,0,0-.722,4.137c-6.895,2.823-37.723,1.74-37.723,1.74s.952-50.954-41.893-45.012-35.359,48.23-35.359,48.23L266.526,1246s3.349-53.713-42.123-48.065c-37.756,4.695-28.071,47.868-28.071,47.868-37.658,1.937-41.532-10.834-41.532-10.834v-5.286h2.364V1215.8H154.8v-10.342l7.912-18.123c3.349-5.746,12.377-10.407,24.065-14.216,35.064-11.426,93.9-14.939,93.9-14.939,15.89-9.127,29.056-15.923,39.365-20.848,16.449-7.88,35.2-15.53,53.318-17.335,49.116-4.859,89.5.657,99.381,2.266,11.557,1.872,69.7,27.184,74.1,29.384s40.087,5.155,44.651,5.712,4.432,5.155,4.432,5.155l.624,4.071-.755,2.4-3.415-1.182,1.445,5.155-.46,2.167,4.6.722.952,6.271.591,3.776C602.917,1187.429,602.326,1196.557,601.8,1198.3Z" transform="translate(0 -492.268)" fill="#1f6666"/>
    <g id="Groupe_96" data-name="Groupe 96" transform="translate(193.526 702.112)">
      <circle id="Ellipse_6" data-name="Ellipse 6" cx="31.715" cy="31.715" r="31.715" transform="translate(0 62.358) rotate(-79.444)" fill="#0f4947"/>
      <g id="Groupe_91" data-name="Groupe 91" transform="translate(12.195 12.19)">
        <path id="Tracé_839" data-name="Tracé 839" d="M334.688,1437.275a24.788,24.788,0,1,1,24.788-24.788A24.829,24.829,0,0,1,334.688,1437.275Zm0-47.277a22.49,22.49,0,1,0,22.49,22.489A22.524,22.524,0,0,0,334.688,1390Z" transform="translate(-309.9 -1387.7)" fill="#c4e8e4"/>
      </g>
      <g id="Groupe_95" data-name="Groupe 95" transform="translate(14.1 13.175)">
        <g id="Groupe_92" data-name="Groupe 92" transform="translate(17.827)">
          <path id="Tracé_840" data-name="Tracé 840" d="M379.291,1438.175h-8.9l2.856-24.328L370,1390.7l10.145.624-3.382,22.522Z" transform="translate(-370 -1390.7)" fill="#c4e8e4"/>
        </g>
        <g id="Groupe_93" data-name="Groupe 93" transform="translate(0 7.486)">
          <path id="Tracé_841" data-name="Tracé 841" d="M320.132,1445.281,315.7,1437.6l22.522-9.719,18.386-14.38,4.564,9.094-21.209,8.339Z" transform="translate(-315.7 -1413.5)" fill="#c4e8e4"/>
        </g>
        <g id="Groupe_94" data-name="Groupe 94" transform="translate(0.886 7.223)">
          <path id="Tracé_842" data-name="Tracé 842" d="M318.4,1420.12l4.892-7.42,18.78,15.759,21.111,9.981-6.107,8.142-16.941-15.2Z" transform="translate(-318.4 -1412.7)" fill="#c4e8e4"/>
        </g>
        <path id="Tracé_843" data-name="Tracé 843" d="M360.1,1446.174a8.273,8.273,0,1,1,8.273,8.273A8.281,8.281,0,0,1,360.1,1446.174Z" transform="translate(-345.523 -1422.404)" fill="#c4e8e4"/>
      </g>
    </g>
    <g id="Groupe_102" data-name="Groupe 102" transform="translate(472.13 699.542)">
      <circle id="Ellipse_7" data-name="Ellipse 7" cx="31.715" cy="31.715" r="31.715" transform="translate(0 60.709) rotate(-73.154)" fill="#0f4947"/>
      <g id="Groupe_97" data-name="Groupe 97" transform="translate(14.761 14.76)">
        <path id="Tracé_844" data-name="Tracé 844" d="M1191.088,1437.275a24.788,24.788,0,1,1,24.788-24.788A24.829,24.829,0,0,1,1191.088,1437.275Zm0-47.277a22.49,22.49,0,1,0,22.49,22.489A22.524,22.524,0,0,0,1191.088,1390Z" transform="translate(-1166.3 -1387.7)" fill="#c4e8e4"/>
      </g>
      <g id="Groupe_101" data-name="Groupe 101" transform="translate(16.665 15.745)">
        <g id="Groupe_98" data-name="Groupe 98" transform="translate(17.828)">
          <path id="Tracé_845" data-name="Tracé 845" d="M1235.691,1438.175h-8.9l2.856-24.328-3.25-23.146,10.145.624-3.382,22.522Z" transform="translate(-1226.4 -1390.7)" fill="#c4e8e4"/>
        </g>
        <g id="Groupe_99" data-name="Groupe 99" transform="translate(0 7.486)">
          <path id="Tracé_846" data-name="Tracé 846" d="M1176.532,1445.281l-4.432-7.682,22.522-9.719,18.385-14.38,4.531,9.094-21.176,8.339Z" transform="translate(-1172.1 -1413.5)" fill="#c4e8e4"/>
        </g>
        <g id="Groupe_100" data-name="Groupe 100" transform="translate(0.886 7.223)">
          <path id="Tracé_847" data-name="Tracé 847" d="M1174.8,1420.12l4.859-7.42,18.78,15.759,21.11,9.981-6.074,8.142-16.941-15.2Z" transform="translate(-1174.8 -1412.7)" fill="#c4e8e4"/>
        </g>
        <path id="Tracé_848" data-name="Tracé 848" d="M1216.4,1446.174a8.274,8.274,0,1,1,8.273,8.273A8.281,8.281,0,0,1,1216.4,1446.174Z" transform="translate(-1201.856 -1422.404)" fill="#c4e8e4"/>
      </g>
    </g>
    <path id="Tracé_849" data-name="Tracé 849" d="M209.8,1328.7H189.055a18.942,18.942,0,0,0-16.547,9.718l-.722,1.28a1.913,1.913,0,0,0,1.674,2.857h24.952a6.118,6.118,0,0,0,4.531-2l8.142-8.832A1.775,1.775,0,0,0,209.8,1328.7Z" transform="translate(-11.24 -633.769)" fill="#e2f2f1"/>
    <path id="Tracé_850" data-name="Tracé 850" d="M184.606,1463.2h-7.092a6.515,6.515,0,0,0-5.647,3.316l-.23.427a.666.666,0,0,0,.558.985h8.536a2,2,0,0,0,1.543-.69l2.791-3.02A.606.606,0,0,0,184.606,1463.2Z" transform="translate(-11.256 -724.111)" fill="#0f4947"/>
    <path id="Tracé_851" data-name="Tracé 851" d="M1031.324,1171.689l-105.848,2.528a3.673,3.673,0,0,1-3.776-3.677v-24.393a3.454,3.454,0,0,1,3.48-3.448c45.143.624,60.607,1.872,69.866,5.089,8.175,2.823,27.315,14.445,37.2,20.323A1.914,1.914,0,0,1,1031.324,1171.689Z" transform="translate(-515.115 -508.835)" fill="#c4e8e4"/>
    <path id="Tracé_852" data-name="Tracé 852" d="M692.348,1142.183c1.707.033,3.382.033,5.056.066v31.814l-102.106,2.43a1.332,1.332,0,0,1-.788-2.43C606.428,1165.986,646.383,1141.658,692.348,1142.183Z" transform="translate(-294.956 -508.483)" fill="#c4e8e4"/>
    <path id="Tracé_853" data-name="Tracé 853" d="M1254.366,1221.933h-.066V1217.5c.361.23.722.427,1.051.624A2.042,2.042,0,0,1,1254.366,1221.933Z" transform="translate(-738.518 -559.078)" fill="#c4e8e4"/>
    <path id="Tracé_854" data-name="Tracé 854" d="M896.982,1173.188H884.9V1139.7l12.377.131Z" transform="translate(-490.397 -506.82)" fill="#0f4947"/>
    <path id="Tracé_855" data-name="Tracé 855" d="M1151.3,1181.629l-6.435.132-.164-26.561,6.731,2.988Z" transform="translate(-664.901 -517.232)" fill="#0f4947"/>
    <path id="Tracé_856" data-name="Tracé 856" d="M606.207,1214l3.119,10.309-17.04.394a1.021,1.021,0,0,1-.624-1.839C595.5,1220.14,602.661,1215.215,606.207,1214Z" transform="translate(-293.159 -556.727)" fill="#2c3a64"/>
    <g id="Groupe_103" data-name="Groupe 103" transform="translate(296.812 632.845)">
      <path id="Tracé_857" data-name="Tracé 857" d="M588.94,1175.612a1.546,1.546,0,0,1-1.51-1.116,1.589,1.589,0,0,1,.591-1.806l.361-.229c.361-.263.788-.526,1.248-.854.361-.263.788-.525,1.215-.788l.656-.427c.493-.328,1.018-.656,1.543-1.018.394-.263.788-.493,1.215-.755l.066-.033.2-.1c.361-.23.722-.459,1.116-.689l.1-.066c.131-.066.263-.164.394-.23.2-.131.394-.23.591-.361.3-.164.558-.328.854-.525.821-.493,1.707-1.018,2.627-1.543.3-.164.558-.328.854-.492.591-.328,1.182-.657,1.773-1.018h0l.427-.23c1.215-.69,2.462-1.346,3.71-2l.394-.2c.2-.1.361-.2.558-.3,2.331-1.215,4.761-2.429,7.157-3.579l.755-.361c.755-.361,1.51-.723,2.3-1.05.263-.132.525-.23.788-.362l1.576-.689.788-.361c.788-.361,1.642-.722,2.594-1.116.492-.2.985-.394,1.477-.624,3.349-1.38,6.73-2.66,10.112-3.841l.722-.263c.262-.1.558-.2.821-.3l1.05-.361c.3-.1.558-.2.854-.3h.033l.886-.3c.558-.164,1.084-.361,1.642-.525.361-.131.755-.229,1.117-.361.591-.164,1.149-.361,1.74-.525l.985-.263c.623-.165,1.214-.362,1.838-.525,1.215-.328,2.462-.656,3.677-.952l.066-.033a1.169,1.169,0,0,1,.328-.065c.525-.131,1.051-.262,1.609-.394.328-.066.624-.164.952-.23l.23-.066c.229-.066.492-.1.722-.164a8.051,8.051,0,0,0,.952-.23l.985-.2.985-.2.985-.2h.066c.3-.066.624-.131.919-.2a9.214,9.214,0,0,1,.919-.164c.361-.065.689-.131,1.05-.2a5.112,5.112,0,0,0,.69-.131l.328-.065c.657-.1,1.346-.23,2-.328.328-.066.656-.1,1.018-.164h.066c.591-.1,1.182-.164,1.773-.263,1.116-.164,2.2-.3,3.283-.427h.066c.3-.033.624-.065.919-.1.2-.033.427-.033.657-.065a4.916,4.916,0,0,1,.69-.066,6.4,6.4,0,0,1,.755-.065c.328-.033.689-.066,1.05-.1.328-.033.657-.066.985-.066.263-.033.525-.033.788-.066l1.477-.1c.3-.033.591-.033.886-.065h.131c.328-.033.657-.033.985-.066.263,0,.525-.033.788-.033h.033c.23,0,.46-.032.689-.032l.591-.033a4.868,4.868,0,0,0,.69-.033,3.1,3.1,0,0,1,2.4.952,3.256,3.256,0,0,1,1.018,2.364v26.364a4.094,4.094,0,0,1-3.972,4.071l-93.34,2.2Zm15.4-11.031-.591.328c-.69.361-1.313.755-1.97,1.116-.3.164-.591.328-.854.492-.919.526-1.773,1.051-2.594,1.544-.3.164-.558.328-.854.525-.2.131-.394.229-.591.361a3.491,3.491,0,0,0-.361.23l-.1.066c-.394.23-.755.459-1.116.69l-.23.131c-.427.263-.821.526-1.215.755-.558.361-1.051.69-1.543.985l-.657.427q-.64.443-1.182.788c-.46.3-.854.591-1.215.821l-.164.131,17.532-.427,75.611-1.806a2.42,2.42,0,0,0,2.331-2.4v-26.364a1.561,1.561,0,0,0-.492-1.182,1.537,1.537,0,0,0-1.215-.46,4.81,4.81,0,0,0-.689.033l-.591.032c-.23,0-.46.033-.69.033h-.033c-.262,0-.525.033-.788.033a8.672,8.672,0,0,0-.952.066H679a7.576,7.576,0,0,0-.854.065l-1.477.1c-.263.033-.493.033-.755.066-.361.033-.689.065-.985.065-.361.033-.689.066-1.018.1-.263.033-.525.033-.755.065s-.46.033-.689.066-.46.033-.657.066c-.3.033-.591.066-.919.1h-.066c-1.083.131-2.167.263-3.25.427-.591.066-1.182.164-1.74.263H665.8c-.328.065-.656.1-.985.164-.657.1-1.313.23-1.97.328l-.328.066a3.946,3.946,0,0,0-.657.132c-.361.066-.69.131-1.051.2a9.141,9.141,0,0,1-.919.164c-.3.065-.624.131-.919.2H658.9c-.328.066-.657.131-.952.2l-.985.2c-.328.066-.656.131-.952.2a8.209,8.209,0,0,0-.952.23c-.23.066-.492.1-.722.165l-.23.066c-.328.065-.624.131-.952.23l-1.576.394a.966.966,0,0,1-.3.066l-.066.033c-1.215.3-2.462.624-3.644.952-.624.164-1.215.329-1.806.493l-.952.263c-.558.164-1.149.328-1.707.525-.361.1-.755.229-1.116.328-.558.164-1.083.328-1.642.525l-.886.3h-.033a8.541,8.541,0,0,1-.854.263l-1.051.361c-.263.1-.558.2-.821.3l-.722.263c-3.349,1.149-6.73,2.462-10.013,3.808-.493.2-.985.394-1.477.624-.952.394-1.773.755-2.561,1.116l-.788.361-1.576.689c-.263.131-.525.23-.755.361-.788.361-1.543.69-2.266,1.05l-.755.361q-3.595,1.723-7.092,3.546c-.2.1-.361.2-.558.3l-.394.2A27.388,27.388,0,0,0,604.338,1164.581Z" transform="translate(-587.347 -1139.594)" fill="#0f4947"/>
    </g>
    <g id="Groupe_104" data-name="Groupe 104" transform="translate(485.052 640.896)">
      <path id="Tracé_858" data-name="Tracé 858" d="M1163.2,1187.619a2.333,2.333,0,0,1-1.675-.689,2.7,2.7,0,0,1-.821-1.97v-17.8c0-1.017.165-2.3.985-2.823a3.169,3.169,0,0,1,2.757.263c.886.427,1.478.722,1.806.919.033.033.1.033.131.066l.361.2c4.432,2.43,10.736,6.238,18.779,11.327.328.229.689.427,1.018.657.821.525,1.609,1.018,2.364,1.51l2.823,1.806c.493.328.952.624,1.412.919.065.033.131.1.2.131l.065.033a2.6,2.6,0,0,1,1.051,2.89,2.408,2.408,0,0,1-2.233,1.806h-.3l-28.629.755Zm.164-21.767a1.247,1.247,0,0,0-.558.164,1.35,1.35,0,0,0-.624,1.182v17.794a1.212,1.212,0,0,0,.361.887.89.89,0,0,0,.657.262l28.924-.755a.873.873,0,0,0,.821-.722,1.089,1.089,0,0,0-.427-1.248l-.066-.033c-.065-.033-.131-.1-.2-.131-.459-.3-.919-.591-1.412-.919l-2.823-1.806c-.755-.492-1.543-.985-2.364-1.51-.328-.23-.689-.427-1.017-.657-7.978-5.089-14.282-8.865-18.682-11.294l-.361-.2c-.033-.033-.066-.033-.1-.065-.329-.165-.92-.493-1.773-.886A.65.65,0,0,0,1163.359,1165.852Z" transform="translate(-1160.7 -1164.118)" fill="#0f4947"/>
    </g>
    <path id="Tracé_859" data-name="Tracé 859" d="M606.207,1214l3.119,10.309-17.04.394a1.021,1.021,0,0,1-.624-1.839C595.5,1220.14,602.661,1215.215,606.207,1214Z" transform="translate(-293.159 -556.727)" fill="#0f4947"/>
    <g id="Groupe_105" data-name="Groupe 105" transform="translate(405.731 632.978)">
      <path id="Tracé_860" data-name="Tracé 860" d="M923.631,1173.225a4.53,4.53,0,0,1-3.152-1.28,4.465,4.465,0,0,1-1.379-3.25V1144.3a4.316,4.316,0,0,1,4.334-4.3c46.588.657,61,1.708,70.161,5.155l.525.2v26.167l-70.391,1.674C923.729,1173.225,923.7,1173.225,923.631,1173.225Zm-.23-31.518a2.582,2.582,0,0,0-1.839.755,2.615,2.615,0,0,0-.788,1.839v24.394a2.751,2.751,0,0,0,.854,2.036,2.847,2.847,0,0,0,2.068.821l68.782-1.642v-23.376c-8.9-3.152-24.164-4.2-69.045-4.826Z" transform="translate(-919.1 -1140)" fill="#0f4947"/>
    </g>
    <path id="Tracé_861" data-name="Tracé 861" d="M1435.446,1281.1h-19.928a9.6,9.6,0,0,1-7.585-3.677l-7.551-9.587a1.375,1.375,0,0,1,1.083-2.233h31.584l-.755,2.4-3.414-1.182,1.444,5.154-.459,2.167,4.6.723Z" transform="translate(-836.436 -591.386)" fill="#a9453d"/>
    <g id="Groupe_106" data-name="Groupe 106" transform="translate(400.326 633.435)">
      <rect id="Rectangle_597" data-name="Rectangle 597" width="106.801" height="0.821" transform="matrix(0.012, -1, 1, 0.012, 0, 106.79)" fill="#0f4947"/>
    </g>
    <g id="Groupe_107" data-name="Groupe 107" transform="translate(266.111 738.655)">
      <rect id="Rectangle_598" data-name="Rectangle 598" width="206.05" height="0.821" transform="translate(0 4.082) rotate(-1.135)" fill="#0f4947"/>
    </g>
    <path id="Tracé_862" data-name="Tracé 862" d="M823.022,1302.435c0,1.117-5.023,2.036-11.261,2.036-6.205,0-11.261-.92-11.261-2.036s5.023-2.035,11.261-2.035C817.966,1300.4,823.022,1301.319,823.022,1302.435Z" transform="translate(-433.707 -614.76)" fill="#0f4947"/>
    <path id="Tracé_863" data-name="Tracé 863" d="M1142.322,1302.435c0,1.117-5.023,2.036-11.261,2.036s-11.261-.92-11.261-2.036,5.023-2.035,11.261-2.035S1142.322,1301.319,1142.322,1302.435Z" transform="translate(-648.176 -614.76)" fill="#0f4947"/>
    <g id="Groupe_108" data-name="Groupe 108" transform="translate(463.285 662.854)">
      <path id="Tracé_864" data-name="Tracé 864" d="M1095.221,1307.268l-.821-.033c.591-10.6,3.71-19.568,9.357-26.594a44.138,44.138,0,0,1,18.09-13.1,68.807,68.807,0,0,1,25.05-4.761V1231h.821v32.6l-.427-.032a67.6,67.6,0,0,0-25.182,4.695,43.6,43.6,0,0,0-17.761,12.87C1098.865,1288.062,1095.812,1296.827,1095.221,1307.268Z" transform="translate(-1094.4 -1231)" fill="#0f4947"/>
    </g>
    <g id="Groupe_109" data-name="Groupe 109" transform="translate(291.203 667.123)">
      <path id="Tracé_865" data-name="Tracé 865" d="M570.309,1319.545c-.328-27.546,1.215-46.588,2.561-57.751A138.584,138.584,0,0,1,575.89,1244l.788.23c-.066.23-6.172,22.719-5.549,75.283Z" transform="translate(-570.264 -1244)" fill="#0f4947"/>
    </g>
    <path id="Tracé_866" data-name="Tracé 866" d="M1457.856,1434.907a32.681,32.681,0,0,0-5.089-1.74c-1.9-.361-13.067,1.083-13.067,1.083a64.021,64.021,0,0,1,7.322-4.334c2.528-1.084,14.282-3.316,14.282-3.316C1460.647,1428.012,1456.772,1430.31,1457.856,1434.907Z" transform="translate(-863.048 -699.527)" fill="#0f4947"/>
    <path id="Tracé_867" data-name="Tracé 867" d="M1475.224,1359.182l-9.981-4.137-5.943-7.945,13.329,4.892,5.385.164Z" transform="translate(-876.213 -646.128)" fill="#0f4947"/>
    <path id="Tracé_868" data-name="Tracé 868" d="M1441.082,1401.615s-9.554-1.084-11.688,0-7.551,6.665-6.828,7.912,10.243-4.268,13.855-4.2,14.249-1.74,14.249-1.74Z" transform="translate(-851.495 -682.422)" fill="#0f4947"/>
    <path id="Tracé_869" data-name="Tracé 869" d="M1403.4,1549.154s10.243-3.546,12.771-4.268a48.167,48.167,0,0,1,8.208-.886s-1.247,3.152-.689,3.382,3.086,1.773,3.086,1.773Z" transform="translate(-838.666 -778.383)" fill="#0f4947"/>
    <path id="Tracé_870" data-name="Tracé 870" d="M1520.7,1553.184s6.73-3.184,8.4-3.184a80.09,80.09,0,0,1,8.5,1.576l-.722,1.609Z" transform="translate(-917.455 -782.413)" fill="#0f4947"/>
    <path id="Tracé_871" data-name="Tracé 871" d="M1476.365,1281.164H1465.5l-.459-1.576,4.038-2.528-6.467-1.805L1461,1272.3l5.647-2.79-2.068-3.808h9.39l-.755,2.364-3.415-1.182,1.445,5.155-.46,2.167,4.629.722Z" transform="translate(-877.355 -591.453)" fill="#7a231f"/>
    <path id="Tracé_872" data-name="Tracé 872" d="M1488.6,1555.6l.36-1.576,3.612-.427,1.084,2.036Z" transform="translate(-895.894 -784.831)" fill="#7a231f"/>
    <path id="Tracé_873" data-name="Tracé 873" d="M651.461,1236.821H633.634a4.351,4.351,0,0,1-4.334-4.334v-5.253a4.351,4.351,0,0,1,4.334-4.333h17.828a4.351,4.351,0,0,1,4.333,4.333v5.253A4.351,4.351,0,0,1,651.461,1236.821Z" transform="translate(-318.715 -562.705)" fill="#0f4947"/>
    <g id="Groupe_110" data-name="Groupe 110" transform="translate(607.021 580.415)">
      <path id="Tracé_874" data-name="Tracé 874" d="M1563.324,999.356s-.263-4.432-.229-6.336,4.76-7.42,6.369-7.42,1.083,5.056.788,6.632c-.263,1.576.525,3.021-.362,4.268s-2.659,3.907-2.659,3.907Z" transform="translate(-1552.95 -983.73)" fill="#7c5b55"/>
      <path id="Tracé_875" data-name="Tracé 875" d="M1619.182,1028.475l-7.583,7.289a22.848,22.848,0,0,1-4.334-4.892c-.165-.263-.362-.525-.493-.788a33.934,33.934,0,0,1-2.3-4.334,4,4,0,0,1-.229-.558c-.427-.919,4.2-3.841,6.829-5.713a8.3,8.3,0,0,0,1.641-1.379,7.892,7.892,0,0,0,0,2.069,8.606,8.606,0,0,0,2.3,4.3A24.855,24.855,0,0,0,1619.182,1028.475Z" transform="translate(-1580.572 -1005.559)" fill="#6d4c44"/>
      <path id="Tracé_876" data-name="Tracé 876" d="M1613.963,1025.1s-1.51,8.011-6.172,10.474c-.164-.263-.361-.525-.493-.788a33.948,33.948,0,0,1-2.3-4.334c.558-1.182,4.465-3.677,6.8-5.319C1613.076,1025.133,1613.963,1025.1,1613.963,1025.1Z" transform="translate(-1581.099 -1010.261)" fill="#49332d"/>
      <path id="Tracé_877" data-name="Tracé 877" d="M1586.033,1003.508s12.476-4.169,9.784-11.918c-2.724-7.748-2.922-13.494-11.031-11.163-8.076,2.331-8.6,5.844-8.306,8.635C1576.741,991.885,1582.717,1004.394,1586.033,1003.508Z" transform="translate(-1561.902 -979.903)" fill="#6d4c44"/>
      <path id="Tracé_878" data-name="Tracé 878" d="M1572.748,1079.888s-22.424,10.047-36.049,12.345c0,0-4.268-.3-4.4-5.549-.1-3.316,22.391-19.7,30.6-19.206S1575.571,1076.375,1572.748,1079.888Z" transform="translate(-1532.266 -1038.718)" fill="#565337"/>
      <path id="Tracé_879" data-name="Tracé 879" d="M1547.007,1026.231l-1.871,25.313-12.936,6.37a71.662,71.662,0,0,1,3.874-19.929c3.973-11.327,6.074-13.165,6.074-13.165S1545.727,1024.031,1547.007,1026.231Z" transform="translate(-1532.2 -1009.98)" fill="#565337"/>
      <path id="Tracé_880" data-name="Tracé 880" d="M1600.675,1537.727c-.1,1.116-.361,2.068-.854,2.3a2.791,2.791,0,0,1-.427.1h-17.072a6.479,6.479,0,0,1-.722-.033s.032-2.1,2.955-2.528c2.331-.328,6.139-1.445,8.011-3.874a5.238,5.238,0,0,0,.952-1.97c.952-3.809,7.091,1.313,7.091,1.313s.066.657.1,1.576A24.6,24.6,0,0,1,1600.675,1537.727Z" transform="translate(-1565.381 -1349.603)" fill="#3a3a3a"/>
      <path id="Tracé_881" data-name="Tracé 881" d="M1649.576,1540.224H1630.6a4.338,4.338,0,0,1,2.955-2.43,3.843,3.843,0,0,1,.591-.131,14.354,14.354,0,0,0,7.19-3.02,5.7,5.7,0,0,0,1.773-2.823c.952-3.808,7.092,1.313,7.092,1.313s.066.624.1,1.478C1650.43,1536.514,1650.463,1539.567,1649.576,1540.224Z" transform="translate(-1598.294 -1349.67)" fill="#3a3a3a"/>
      <path id="Tracé_882" data-name="Tracé 882" d="M1609.762,1245.7s0,.69-.032,1.937c-.164,7.978-.854,38.84-1.51,56.043-.033.624-.065,1.248-.065,1.806,0,.3-.033.624-.033.919a185.955,185.955,0,0,1-2.659,22.982c-1.445,8.307-2.922,13.953-2.922,13.953a13.742,13.742,0,0,1-9.128-.985s-1.51-12.9-2.068-20.684c-.2-2.528-1.083-11.163-2.232-21.669-.887-8.142-1.9-17.368-2.857-25.773-.065-.459-.1-.886-.164-1.346-1.51-13.592-2.791-24.69-2.791-24.69l9.783-.919Z" transform="translate(-1566.523 -1158.435)" fill="#3a3a3a"/>
      <path id="Tracé_883" data-name="Tracé 883" d="M1605.395,1332.644l-16.383-29.417c-.887-8.142-1.9-17.368-2.856-25.772-.066-.46-.1-.887-.164-1.346-1.51-13.593-2.791-24.689-2.791-24.689l9.784-.92,16.613.328Z" transform="translate(-1566.456 -1161.659)" fill="#303030"/>
      <path id="Tracé_884" data-name="Tracé 884" d="M1588.8,1248.092s9.16,45.275,16.613,67.14,7.551,27.94,7.551,27.94,6.862,1.478,9.882-.23c0,0,1.74-41.433-2.791-52.432-2.988-7.288-5.286-22.752-4.5-28.333s1.51-16.777,1.51-16.777Z" transform="translate(-1570.217 -1158.233)" fill="#3a3a3a"/>
      <path id="Tracé_885" data-name="Tracé 885" d="M1604.442,1117.354a9.713,9.713,0,0,1-3.644,6.337c-2.167,1.543-5.582,2.1-9.324,2.036a51.361,51.361,0,0,1-13.133-2.134,28.659,28.659,0,0,1-5.187-2c-5.811-3.021-4.99-7.059-4.826-22.129.131-15.4,9.62-35.261,11.327-38.61,3.021-5.91,15.923-3.973,15.923-3.973,2.824,2.594,5.286,6.337,6.993,12.345a48.952,48.952,0,0,1,1.313,9.652c.689,11.688-.2,27.251.492,30.895A23.576,23.576,0,0,1,1604.442,1117.354Z" transform="translate(-1556.377 -1031.402)" fill="#7a774c"/>
      <path id="Tracé_886" data-name="Tracé 886" d="M1616.41,1039.6s2.1,4.991,1.675,5.877c0,0-11.557,1.083-16.284,4.432,0,0,1.543-4.859,3.448-6.041C1607.119,1042.686,1616.41,1039.6,1616.41,1039.6Z" transform="translate(-1578.949 -1020)" fill="#565337"/>
      <path id="Tracé_887" data-name="Tracé 887" d="M1649.612,1154.045c-23.967-9.127-10.276-42.845-10.276-42.845a17.389,17.389,0,0,1,9.653,4.367c.689,11.688-.2,27.25.492,30.894A21.981,21.981,0,0,1,1649.612,1154.045Z" transform="translate(-1601.546 -1068.093)" fill="#565337"/>
      <path id="Tracé_888" data-name="Tracé 888" d="M1630.909,1064.324s20.552,13.756,29.45,24.328c0,0-.525,4.2-3.415,5.877s-27.939-8.076-31.683-15.4C1621.486,1071.809,1626.443,1063.667,1630.909,1064.324Z" transform="translate(-1593.809 -1036.582)" fill="#7a774c"/>
      <path id="Tracé_889" data-name="Tracé 889" d="M1629.752,1199.8s-1.313,2.266-2.561,1.74-3.808-1.116-5.713.131c-1.9,1.215-4.76,4.531-2.955,5.319,1.773.788,5.188-1.346,5.976-1.674.788-.361,2.2.361,3.742-.427a16.179,16.179,0,0,0,3.152-2.331Z" transform="translate(-1589.796 -1127.604)" fill="#6d4c44"/>
      <path id="Tracé_890" data-name="Tracé 890" d="M1647.357,1154.448,1664.2,1131.4l11.819,2.3s-1.577,7.781-10.145,14.84c-8.832,7.256-13.691,8.7-13.691,8.7S1646.339,1158.256,1647.357,1154.448Z" transform="translate(-1609.469 -1081.661)" fill="#7a774c"/>
    </g>
    <path id="Tracé_891" data-name="Tracé 891" d="M2012.241,1099.359c.788,2.167,2.2,4.662,3.644,5.286a5.787,5.787,0,0,1,2.364,1.707l1.346-.788,1.609-.919a4.287,4.287,0,0,0-.131-.459,10.881,10.881,0,0,0-.362-1.149,1.533,1.533,0,0,1-.2-1.412,3.4,3.4,0,0,0-.263-2.758c-.525-.755-1.018-2.593-1.313-2.528-.755.132.361,2.66.033,3.12a.54.54,0,0,1-.722.229h0c-2.1-.919-4.63-5.91-5.778-5.22C2012.077,1094.729,2011.913,1098.439,2012.241,1099.359Z" transform="translate(-1247.498 -476.394)" fill="#6d4c44"/>
    <g id="Groupe_111" data-name="Groupe 111" transform="translate(760.713 615.63)">
      <path id="Tracé_892" data-name="Tracé 892" d="M2014.187,1097.515l-2.626,1.838a.421.421,0,0,1-.591-.1l-6.73-9.587a.419.419,0,0,1,.1-.591l2.626-1.839a.42.42,0,0,1,.591.1l6.73,9.587A.42.42,0,0,1,2014.187,1097.515Z" transform="translate(-2002.901 -1087.16)" fill="#1f6666"/>
      <path id="Tracé_893" data-name="Tracé 893" d="M2009.215,1102.826l-1.544,1.083a.311.311,0,0,1-.427-.065l-6.862-9.751a.311.311,0,0,1,.066-.427l1.543-1.083a.312.312,0,0,1,.427.066l6.862,9.75A.312.312,0,0,1,2009.215,1102.826Z" transform="translate(-2000.325 -1090.764)" fill="#0f4947"/>
    </g>
    <path id="Tracé_894" data-name="Tracé 894" d="M2068.326,1076.8s-13.363,23.343-18.221,27.611l-17.794-13.264a6.438,6.438,0,0,0-3.71,3.382s10.8,22,21.439,22.949c10.637.919,25.575-26.4,25.575-26.4Z" transform="translate(-1258.604 -464.572)" fill="#0f4947"/>
    <g id="Groupe_112" data-name="Groupe 112" transform="translate(795.145 666.17)">
      <path id="Tracé_895" data-name="Tracé 895" d="M2241.63,1528.061h7.716a4.613,4.613,0,0,0,2.1-3.546c.394-2.5,3.152-3.841,3.776-5.877.592-2.035-2.5-4.892-2.5-4.892l-.525-.656-.525-.69-5.122,1.215s-.131,1.214-.2,2.79a32.057,32.057,0,0,0-.032,3.546c.164,2.725-.755,5.647-3.185,6.173C2241.368,1526.485,2241.466,1527.535,2241.63,1528.061Z" transform="translate(-2196.782 -1423.328)" fill="#3a3a3a"/>
      <path id="Tracé_896" data-name="Tracé 896" d="M2105.2,1541.648h17.663c.854-1.05.525-4.859.394-6.106a3.587,3.587,0,0,1-.033-.394s-6.042-4.826-6.863-1.116c-.033.131-.065.23-.1.329-1.05,3.447-5.712,5.023-8.438,5.45A3.073,3.073,0,0,0,2105.2,1541.648Z" transform="translate(-2105.2 -1436.916)" fill="#3a3a3a"/>
      <path id="Tracé_897" data-name="Tracé 897" d="M2115.4,1256.476s.919,11.425,2,25.182c1.479,18.681,3.218,41.6,3.415,45.931.295,7.551,1.51,19.6,1.51,19.6s2.856,2.856,8.6,1.674a196.2,196.2,0,0,0,6.566-35.458c.033-.3.033-.591.065-.887,1.347-18.55,3.481-57.619,3.481-57.619Z" transform="translate(-2112.051 -1250.37)" fill="#3a3a3a"/>
      <path id="Tracé_898" data-name="Tracé 898" d="M2115.4,1256.476s.919,11.425,2,25.182l20.061,31.748c.032-.3.032-.591.065-.887,1.346-18.55,3.481-57.619,3.481-57.619Z" transform="translate(-2112.051 -1250.37)" fill="#303030"/>
      <path id="Tracé_899" data-name="Tracé 899" d="M2128.2,1248.553s16.514,41.4,27.382,60.87,14.248,24.886,14.248,24.886,6.238-2.5,6.8-4.17c0,0-4.17-37.559-11.425-46.719-4.1-5.187-8.93-20.717-9.16-26.134s-1.478-16.186-1.478-16.186Z" transform="translate(-2120.648 -1241.1)" fill="#3a3a3a"/>
    </g>
    <path id="Tracé_900" data-name="Tracé 900" d="M2140.7,1044.7c6.468,2.035,17.631-3.448,17.631-3.448s-5.942-4.465-5.647-13.756l-4.99,4.006-3.381,2.724a35.765,35.765,0,0,0,.393,4.432c.1.756.231,1.576.362,2.462A15.413,15.413,0,0,0,2140.7,1044.7Z" transform="translate(-1333.899 -431.458)" fill="#6d4c44"/>
    <path id="Tracé_901" data-name="Tracé 901" d="M2151.7,1042.267a35.676,35.676,0,0,0,.394,4.432c3.742-.656,8.01-6.73,8.01-6.73a12.006,12.006,0,0,0-5.023-.46Z" transform="translate(-1341.288 -439.462)" fill="#49332d"/>
    <path id="Tracé_902" data-name="Tracé 902" d="M2138.561,1008.384s11.754,1.937,12.837-5.384c1.116-7.321,3.349-12.016-4.1-13.559s-9.324,1.018-10.309,3.381C2136.032,995.153,2135.507,1007.694,2138.561,1008.384Z" transform="translate(-1330.906 -405.578)" fill="#6d4c44"/>
    <path id="Tracé_903" data-name="Tracé 903" d="M2112.828,1127.623a1.061,1.061,0,0,0,.689.263c2.43-.033,9.488,1.313,15.464.689a44.111,44.111,0,0,0,14.281-4.137c.624-.3,2.1-1.051,2.069-1.773-.033-.788-.1-1.9-.2-3.316a183.291,183.291,0,0,1-.362-23.277c.1-1.839.164-3.644.164-5.417.065-13.3-2.593-25.018-7.88-28.958-.459-.328-3.217,1.018-5.778,2.3a10.867,10.867,0,0,1-6.96.854l-2.233,1.97a22.355,22.355,0,0,0-6.993,11.163c-1.083,4.432-1.74,12.41-2.1,20.684-.164,3.743-.3,7.518-.328,11.13v.132c-.033.361-.033.755-.033,1.083C2112.532,1120.171,2112.664,1127.492,2112.828,1127.623Z" transform="translate(-1315.023 -454.394)" fill="#1f6666"/>
    <path id="Tracé_904" data-name="Tracé 904" d="M2190.542,1159.72a183.548,183.548,0,0,1-.36-23.278c.1-1.838.164-3.644.164-5.417-2.2-5.352-4.006-9.226-4.006-9.226h-5.581S2176.688,1149.674,2190.542,1159.72Z" transform="translate(-1360.431 -494.797)" fill="#0f4947"/>
    <path id="Tracé_905" data-name="Tracé 905" d="M2243.6,1237.009a8.014,8.014,0,0,1,1.28,2.331c.329,4.5-1.707,5.121,3.612,7.617,0,0,2.265.853,2.3-.887.033-1.772-1.576-1.806-1.281-4.268.329-2.857.3-2.889-1.575-4.366l-1.247-2.036Z" transform="translate(-1403.016 -571.101)" fill="#6d4c44"/>
    <path id="Tracé_906" data-name="Tracé 906" d="M2194.764,1123.4a17.874,17.874,0,0,1-4.169.23s-5.943-18.386-6.731-20.06c-.755-1.674-17.664-21.538-17.664-21.538l7.059-17.63s18.288,30.533,20.159,34.834c3.054,7.092,4.137,22.982,4.137,22.982A7.689,7.689,0,0,1,2194.764,1123.4Z" transform="translate(-1351.027 -456.243)" fill="#1f6666"/>
    <path id="Tracé_907" data-name="Tracé 907" d="M2245.665,1246.3s-1.215,1.248-1.281,1.773c-.229,1.674-.788,2.4-.525,2.561.592.394,1.347-.853,1.708-1.97A4.774,4.774,0,0,0,2245.665,1246.3Z" transform="translate(-1403.144 -578.422)" fill="#6d4c44"/>
    <rect id="Rectangle_599" data-name="Rectangle 599" width="13.33" height="40.744" transform="translate(919.511 631.566)" fill="#0f4947"/>
    <path id="Tracé_908" data-name="Tracé 908" d="M2750.7,1186.129l-6.4.132-.2-26.561,6.763,2.955Z" transform="translate(-1739.194 -520.254)" fill="#0f4947"/>
  </g>
</svg>
