<svg id="coin-stack" xmlns="http://www.w3.org/2000/svg" width="69.885" height="62.096" viewBox="0 0 69.885 62.096">
  <g id="Groupe_639" data-name="Groupe 639" transform="translate(0 0)">
    <path id="Tracé_2564" data-name="Tracé 2564" d="M20.305,132.424a43.529,43.529,0,0,0,5.659-.363v-19.69a43.557,43.557,0,0,0-5.659-.363c-11.214,0-20.3,4.123-20.3,9.209v2C0,128.3,9.092,132.424,20.305,132.424Z" transform="translate(-0.001 -96.412)" fill="#7a774c"/>
    <path id="Tracé_2565" data-name="Tracé 2565" d="M20.305,226.266a43.592,43.592,0,0,0,5.659-.363v-5.771a43.55,43.55,0,0,1-5.659.365c-9.788,0-17.958-3.142-19.877-7.323A4.492,4.492,0,0,0,0,215.06v2C0,222.143,9.092,226.266,20.305,226.266Z" transform="translate(-0.001 -179.973)" fill="#7a774c"/>
    <path id="Tracé_2566" data-name="Tracé 2566" d="M25.963,279.665v-.449a43.551,43.551,0,0,1-5.659.365c-9.788,0-17.958-3.142-19.877-7.323A4.49,4.49,0,0,0,0,274.144v2c0,5.086,9.091,9.209,20.3,9.209a43.127,43.127,0,0,0,6.416-.47,7.264,7.264,0,0,1-.758-3.219Z" transform="translate(0 -228.775)" fill="#7a774c"/>
    <path id="Tracé_2567" data-name="Tracé 2567" d="M188.543,22.379c-11.214,0-20.3,4.123-20.3,9.209v2c0,5.086,9.091,9.209,20.3,9.209s20.3-4.123,20.3-9.209v-2C208.847,26.5,199.757,22.379,188.543,22.379Z" transform="translate(-138.963 -22.379)" fill="#7a774c"/>
    <path id="Tracé_2568" data-name="Tracé 2568" d="M188.543,130.867c-9.788,0-17.958-3.141-19.877-7.323a4.49,4.49,0,0,0-.427,1.886v2c0,5.086,9.091,9.209,20.3,9.209s20.3-4.123,20.3-9.209v-2a4.49,4.49,0,0,0-.427-1.886C206.5,127.725,198.332,130.867,188.543,130.867Z" transform="translate(-138.963 -105.94)" fill="#7a774c"/>
    <path id="Tracé_2569" data-name="Tracé 2569" d="M188.543,189.951c-9.788,0-17.958-3.142-19.877-7.323a4.49,4.49,0,0,0-.427,1.886v2c0,5.086,9.091,9.209,20.3,9.209s20.3-4.123,20.3-9.209v-2a4.49,4.49,0,0,0-.427-1.886C206.5,186.809,198.332,189.951,188.543,189.951Z" transform="translate(-138.963 -154.742)" fill="#7a774c"/>
    <path id="Tracé_2570" data-name="Tracé 2570" d="M188.543,252.224c-9.788,0-17.958-3.142-19.877-7.323a4.49,4.49,0,0,0-.427,1.886v2c0,5.086,9.091,9.209,20.3,9.209s20.3-4.123,20.3-9.209v-2a4.489,4.489,0,0,0-.427-1.886C206.5,249.082,198.332,252.224,188.543,252.224Z" transform="translate(-138.963 -206.179)" fill="#7a774c"/>
    <path id="Tracé_2571" data-name="Tracé 2571" d="M188.543,311.307c-9.788,0-17.958-3.141-19.877-7.323a4.492,4.492,0,0,0-.427,1.886v2c0,5.086,9.091,9.209,20.3,9.209s20.3-4.123,20.3-9.209v-2a4.49,4.49,0,0,0-.427-1.886C206.5,308.165,198.332,311.307,188.543,311.307Z" transform="translate(-138.963 -254.98)" fill="#7a774c"/>
  </g>
</svg>
