<svg id="notification-2" xmlns="http://www.w3.org/2000/svg" width="56.877" height="64.998" viewBox="0 0 56.877 64.998">
  <path id="Tracé_2574" data-name="Tracé 2574" d="M205.945,7.13a.256.256,0,0,0,.337-.253,7.1,7.1,0,0,0-14.2,0,.255.255,0,0,0,.337.253A22.717,22.717,0,0,1,205.945,7.13Z" transform="translate(-171.757)" fill="#7a774c"/>
  <path id="Tracé_2575" data-name="Tracé 2575" d="M85.018,103.422a15.152,15.152,0,0,1-5.3-11.517V90.193a.254.254,0,0,0-.306-.248A14.242,14.242,0,0,1,62.455,75.99a13.382,13.382,0,0,1,4.451-10.358.253.253,0,0,0-.07-.428A20.321,20.321,0,0,0,39.1,84.115v7.791a15.154,15.154,0,0,1-5.3,11.517,5.189,5.189,0,0,0,3.378,9.129H81.549a5.25,5.25,0,0,0,5.267-4.816A5.192,5.192,0,0,0,85.018,103.422Z" transform="translate(-31.983 -55.678)" fill="#7a774c"/>
  <path id="Tracé_2576" data-name="Tracé 2576" d="M189.972,470.094a9.152,9.152,0,0,0,8.408-5.558.382.382,0,0,0-.348-.536h-16.12a.382.382,0,0,0-.348.536A9.152,9.152,0,0,0,189.972,470.094Z" transform="translate(-162.547 -405.095)" fill="#7a774c"/>
  <path id="Tracé_2577" data-name="Tracé 2577" d="M300.2,88.374a12.187,12.187,0,1,0-12.187-12.187A12.179,12.179,0,0,0,300.2,88.374Zm-1.577-15.341a1.016,1.016,0,1,1-.909-1.818l2.031-1.016a1.016,1.016,0,0,1,1.47.909v9.013a.127.127,0,0,0,.127.127h.854a1.038,1.038,0,0,1,1.048.948,1.015,1.015,0,0,1-1.013,1.083h-4.028a1.038,1.038,0,0,1-1.048-.948,1.015,1.015,0,0,1,1.013-1.083h.889a.127.127,0,0,0,.127-.127V72.958a.127.127,0,0,0-.184-.113Z" transform="translate(-255.513 -55.875)" fill="#7a774c"/>
</svg>
