<svg id="man-user" xmlns="http://www.w3.org/2000/svg" width="48.043" height="63.165" viewBox="0 0 48.043 63.165">
  <path id="Tracé_2560" data-name="Tracé 2560" d="M117.252,30.892c7.023,0,12.717-6.915,12.717-15.446S128.1,0,117.252,0s-12.717,6.915-12.717,15.446S110.229,30.892,117.252,30.892Z" transform="translate(-93.23 0)" fill="#7a774c"/>
  <path id="Tracé_2561" data-name="Tracé 2561" d="M41.9,300.639c0-.52,0-.147,0,0Z" transform="translate(-41.895 -246.163)" fill="#7a774c"/>
  <path id="Tracé_2562" data-name="Tracé 2562" d="M308.085,301.959c.007-.142,0-.988,0,0Z" transform="translate(-260.045 -247.076)" fill="#7a774c"/>
  <path id="Tracé_2563" data-name="Tracé 2563" d="M89.918,199.515c-.235-14.86-2.176-19.095-17.028-21.775,0,0-2.091,2.664-6.963,2.664s-6.964-2.664-6.964-2.664c-14.689,2.651-16.748,6.823-17.019,21.292-.022,1.182-.032,1.244-.036,1.106,0,.257,0,.732,0,1.561,0,0,3.536,7.128,24.017,7.128S89.944,201.7,89.944,201.7c0-.533,0-.9,0-1.155A9.549,9.549,0,0,1,89.918,199.515Z" transform="translate(-41.906 -145.663)" fill="#7a774c"/>
</svg>
