<svg xmlns="http://www.w3.org/2000/svg" width="155.492" height="113.193" viewBox="0 0 155.492 113.193">
  <g id="salama-assurance-seeklogo.com" transform="translate(-87.9 -201.033)">
    <g id="Groupe_612" data-name="Groupe 612" transform="translate(123.622 201.033)">
      <path id="Tracé_2491" data-name="Tracé 2491" d="M544.507,293.124,467.7,278.6v50.428h75.046Z" transform="translate(-463.362 -270.419)" fill="#cccbce"/>
      <path id="Tracé_2492" data-name="Tracé 2492" d="M464.675,227.425s5.675,2.32,1.35,3.955c0,0-6.213,2.32-3.776,14.872,0,0,6.75,14.946,19.165-3.217,0,0,7.288-17.467-3.238-29.08,0,0-8.375-13.712-27.814-6.508-18.912,7.014-21.728,26.559-21.369,37.887q.016.475.032.918c.538,11.159,7.563,21.38,7.563,21.38s1.35,3.955-2.162,0c0,0-13.09-27.656-5.464-41.367,0,0,3.85-16.728,24.365-23.7s32.94,13.712,32.666,15.336c0,0,8.913,21.612-6.476,35.324,0,0-23.911,14.967-21.95-17.962.011,0,.084-5.274,7.109-7.837" transform="translate(-426.575 -201.123)" fill="#006767"/>
      <path id="Tracé_2493" data-name="Tracé 2493" d="M650.246,243s-5.675-2.32-1.35-3.955c0,0,6.213-2.32,3.776-14.872,0,0-7.763-13.026-19.165,3.217,0,0-7.288,17.467,3.238,29.08,0,0,8.375,13.712,27.814,6.508,18.912-7.014,21.728-26.559,21.369-37.887q-.016-.475-.032-.918c-.538-11.159-7.562-21.38-7.562-21.38s-1.35-3.955,2.162,0c0,0,13.09,27.656,5.464,41.367,0,0-3.85,16.728-24.365,23.7s-32.94-13.712-32.666-15.336c0,0-8.913-21.612,6.476-35.324,0,0,26.432-14.113,21.949,17.962-.01.01-.084,5.284-7.109,7.837" transform="translate(-605.289 -201.033)" fill="#66672c"/>
    </g>
    <g id="Groupe_613" data-name="Groupe 613" transform="translate(87.9 274.989)">
      <path id="Tracé_2494" data-name="Tracé 2494" d="M102.044,902.2l.179,7.457h-.675a7.66,7.66,0,0,0-2.352-4.514,5.9,5.9,0,0,0-4.05-1.709,3.8,3.8,0,0,0-2.669.9A2.736,2.736,0,0,0,91.5,906.4a2.486,2.486,0,0,0,.348,1.318,5.515,5.515,0,0,0,1.529,1.53,36.491,36.491,0,0,0,3.576,1.93,15.774,15.774,0,0,1,5.295,3.649,6.134,6.134,0,0,1,1.35,3.924,6.373,6.373,0,0,1-2.183,4.831,7.85,7.85,0,0,1-5.548,2.025,9.238,9.238,0,0,1-1.993-.211,15.433,15.433,0,0,1-2.363-.812,3.507,3.507,0,0,0-1.308-.327,1.594,1.594,0,0,0-.907.327,2.4,2.4,0,0,0-.781,1H87.9v-8.428h.612a9.669,9.669,0,0,0,2.8,5.432,6.575,6.575,0,0,0,4.462,1.877,4.2,4.2,0,0,0,2.943-1,3.114,3.114,0,0,0,1.1-2.342,2.989,2.989,0,0,0-.422-1.529,5.069,5.069,0,0,0-1.276-1.413,19.434,19.434,0,0,0-3.038-1.74,26.639,26.639,0,0,1-4.388-2.552,7.988,7.988,0,0,1-2.057-2.363,5.877,5.877,0,0,1-.717-2.869,6.083,6.083,0,0,1,1.962-4.557,6.865,6.865,0,0,1,4.947-1.878,8.2,8.2,0,0,1,2.109.264,10.813,10.813,0,0,1,1.888.738,4.43,4.43,0,0,0,1.561.538.874.874,0,0,0,.675-.264,3.082,3.082,0,0,0,.464-1.266h.527Z" transform="translate(-87.9 -902.2)" fill="#006767"/>
      <path id="Tracé_2495" data-name="Tracé 2495" d="M287.1,919.165h-7.9l-.939,2.183a4.921,4.921,0,0,0-.464,1.8,1.491,1.491,0,0,0,.759,1.382,6.457,6.457,0,0,0,2.194.4v.612H273.3v-.612a3.294,3.294,0,0,0,1.983-1,13.008,13.008,0,0,0,1.909-3.375L285.2,902.7h.316l8.069,18.353a10.974,10.974,0,0,0,1.9,3.28,2.6,2.6,0,0,0,1.582.591v.612H286.242v-.612h.443a3.43,3.43,0,0,0,1.835-.359.885.885,0,0,0,.359-.76,2.11,2.11,0,0,0-.095-.612c-.021-.095-.19-.506-.5-1.234Zm-.559-1.213-3.333-7.71-3.428,7.71Z" transform="translate(-253.745 -902.647)" fill="#006767"/>
      <path id="Tracé_2496" data-name="Tracé 2496" d="M550,921.624l-.844,7.858H529.3v-.612h.738a3.1,3.1,0,0,0,1.572-.348,1.568,1.568,0,0,0,.665-.791,7.011,7.011,0,0,0,.179-2.078V910.929a7.563,7.563,0,0,0-.179-2.141,1.619,1.619,0,0,0-.738-.749,3,3,0,0,0-1.5-.327H529.3V907.1h11.929v.612h-.97a3.1,3.1,0,0,0-1.572.348,1.637,1.637,0,0,0-.675.791,7.011,7.011,0,0,0-.179,2.078v14.26a6.989,6.989,0,0,0,.2,2.183,1.29,1.29,0,0,0,.78.7,8.034,8.034,0,0,0,1.994.148h1.856a6.435,6.435,0,0,0,2.974-.622,5.57,5.57,0,0,0,2.057-1.983,16.03,16.03,0,0,0,1.645-4H550Z" transform="translate(-482.743 -906.583)" fill="#006767"/>
      <path id="Tracé_2497" data-name="Tracé 2497" d="M774.5,919.165h-7.9l-.939,2.183a4.92,4.92,0,0,0-.464,1.8,1.491,1.491,0,0,0,.76,1.382,6.456,6.456,0,0,0,2.194.4v.612H760.7v-.612a3.293,3.293,0,0,0,1.983-1,13.007,13.007,0,0,0,1.909-3.375L772.6,902.7h.317l8.069,18.353a10.973,10.973,0,0,0,1.9,3.28,2.6,2.6,0,0,0,1.582.591v.612H773.642v-.612h.443a3.43,3.43,0,0,0,1.835-.359.885.885,0,0,0,.359-.76,2.111,2.111,0,0,0-.095-.612c-.021-.095-.19-.506-.5-1.234Zm-.559-1.213-3.333-7.71-3.428,7.71Z" transform="translate(-689.736 -902.647)" fill="#006767"/>
      <path id="Tracé_2498" data-name="Tracé 2498" d="M1032.531,921.756,1038.606,907h9.113v.612h-.728a3.086,3.086,0,0,0-1.582.348,1.647,1.647,0,0,0-.664.781,6.915,6.915,0,0,0-.179,2.067v14.756a7.56,7.56,0,0,0,.179,2.141,1.621,1.621,0,0,0,.738.749,3.034,3.034,0,0,0,1.5.327h.728v.612h-11.687v-.612h.728a3.09,3.09,0,0,0,1.582-.348,1.678,1.678,0,0,0,.664-.791,7.007,7.007,0,0,0,.179-2.078V908.972l-8.575,20.41h-.4l-8.712-20.262v15.758a14.088,14.088,0,0,0,.084,2.025,2.409,2.409,0,0,0,.928,1.35,3.877,3.877,0,0,0,2.257.517v.612H1017.1v-.612h.232a3.5,3.5,0,0,0,1.382-.243,2.206,2.206,0,0,0,.97-.686,3.034,3.034,0,0,0,.506-1.2c.021-.116.032-.686.032-1.687V910.807a7.432,7.432,0,0,0-.179-2.12,1.6,1.6,0,0,0-.738-.738,3.034,3.034,0,0,0-1.5-.327h-.707v-.612h9.145Z" transform="translate(-919.092 -906.494)" fill="#006767"/>
      <path id="Tracé_2499" data-name="Tracé 2499" d="M1350.6,919.165h-7.9l-.939,2.183a4.918,4.918,0,0,0-.464,1.8,1.491,1.491,0,0,0,.759,1.382,6.458,6.458,0,0,0,2.194.4v.612H1336.8v-.612a3.294,3.294,0,0,0,1.983-1,13,13,0,0,0,1.909-3.375L1348.7,902.7h.317l8.069,18.353a10.959,10.959,0,0,0,1.9,3.28,2.6,2.6,0,0,0,1.582.591v.612h-10.822v-.612h.443a3.431,3.431,0,0,0,1.835-.359.885.885,0,0,0,.359-.76,2.111,2.111,0,0,0-.095-.612c-.021-.095-.19-.506-.5-1.234Zm-.569-1.213-3.333-7.71-3.428,7.71Z" transform="translate(-1205.072 -902.647)" fill="#006767"/>
    </g>
    <g id="Groupe_614" data-name="Groupe 614" transform="translate(100.926 303.932)">
      <path id="Tracé_2500" data-name="Tracé 2500" d="M219.479,1204.547h-1.772l-.707-1.825h-3.217l-.665,1.825H211.4l3.133-8.048h1.719Zm-3-3.175-1.107-2.985-1.086,2.985Z" transform="translate(-211.4 -1194.401)" fill="#66672c"/>
      <path id="Tracé_2501" data-name="Tracé 2501" d="M292.2,1200.858l1.582-.158a1.931,1.931,0,0,0,.58,1.171,1.744,1.744,0,0,0,1.181.369,1.793,1.793,0,0,0,1.181-.327,1,1,0,0,0,.4-.781.716.716,0,0,0-.169-.485,1.3,1.3,0,0,0-.58-.348q-.285-.1-1.3-.348a4.491,4.491,0,0,1-1.835-.791,2.109,2.109,0,0,1-.39-2.763,2.139,2.139,0,0,1,1-.812,3.927,3.927,0,0,1,1.582-.285,3.376,3.376,0,0,1,2.278.665,2.341,2.341,0,0,1,.8,1.772l-1.624.074a1.476,1.476,0,0,0-.443-.9,1.657,1.657,0,0,0-1.034-.274,1.8,1.8,0,0,0-1.107.3.6.6,0,0,0-.253.5.625.625,0,0,0,.243.485,4.42,4.42,0,0,0,1.5.538,7.969,7.969,0,0,1,1.751.58,2.223,2.223,0,0,1,.886.823,2.41,2.41,0,0,1,.316,1.276,2.385,2.385,0,0,1-.38,1.3,2.283,2.283,0,0,1-1.086.9,4.463,4.463,0,0,1-1.751.3,3.469,3.469,0,0,1-2.341-.707A2.993,2.993,0,0,1,292.2,1200.858Z" transform="translate(-283.678 -1193.328)" fill="#66672c"/>
      <path id="Tracé_2502" data-name="Tracé 2502" d="M363.3,1200.858l1.582-.158a1.931,1.931,0,0,0,.58,1.171,1.744,1.744,0,0,0,1.181.369,1.793,1.793,0,0,0,1.181-.327,1,1,0,0,0,.4-.781.716.716,0,0,0-.169-.485,1.3,1.3,0,0,0-.58-.348q-.285-.1-1.3-.348a4.491,4.491,0,0,1-1.835-.791,2.109,2.109,0,0,1-.39-2.763,2.139,2.139,0,0,1,1-.812,3.927,3.927,0,0,1,1.582-.285,3.376,3.376,0,0,1,2.278.665,2.34,2.34,0,0,1,.8,1.772l-1.624.074a1.476,1.476,0,0,0-.443-.9,1.657,1.657,0,0,0-1.034-.274,1.8,1.8,0,0,0-1.107.3.6.6,0,0,0-.253.5.625.625,0,0,0,.243.485,4.419,4.419,0,0,0,1.5.538,7.966,7.966,0,0,1,1.751.58,2.223,2.223,0,0,1,.886.823,2.41,2.41,0,0,1,.316,1.276,2.386,2.386,0,0,1-.38,1.3,2.283,2.283,0,0,1-1.086.9,4.464,4.464,0,0,1-1.751.3,3.469,3.469,0,0,1-2.341-.707A2.993,2.993,0,0,1,363.3,1200.858Z" transform="translate(-347.278 -1193.328)" fill="#66672c"/>
      <path id="Tracé_2503" data-name="Tracé 2503" d="M438.2,1196.421h1.624v4.356a8.455,8.455,0,0,0,.063,1.339,1.316,1.316,0,0,0,.5.791,1.736,1.736,0,0,0,1.076.3,1.622,1.622,0,0,0,1.044-.285,1.11,1.11,0,0,0,.422-.7,8.337,8.337,0,0,0,.074-1.371V1196.4h1.614v4.23a11.276,11.276,0,0,1-.126,2.046,2.269,2.269,0,0,1-.485,1.012,2.345,2.345,0,0,1-.949.654,4.225,4.225,0,0,1-1.551.243,4.454,4.454,0,0,1-1.751-.264,2.489,2.489,0,0,1-.939-.7,2.191,2.191,0,0,1-.453-.9,9.852,9.852,0,0,1-.158-2.046Z" transform="translate(-414.278 -1194.312)" fill="#66672c"/>
      <path id="Tracé_2504" data-name="Tracé 2504" d="M515.3,1204.547V1196.5h3.417a5.738,5.738,0,0,1,1.877.222,1.859,1.859,0,0,1,.939.77,2.328,2.328,0,0,1,.348,1.266,2.181,2.181,0,0,1-.528,1.5,2.542,2.542,0,0,1-1.593.738,3.621,3.621,0,0,1,.865.675,9.136,9.136,0,0,1,.928,1.308l.981,1.571h-1.941l-1.171-1.751a13.138,13.138,0,0,0-.854-1.181,1.394,1.394,0,0,0-.485-.338,2.55,2.55,0,0,0-.823-.095h-.327v3.354H515.3Zm1.624-4.641h1.2a6.378,6.378,0,0,0,1.456-.095.865.865,0,0,0,.453-.338,1.063,1.063,0,0,0,.169-.6.944.944,0,0,0-.222-.654.984.984,0,0,0-.612-.317,11.812,11.812,0,0,0-1.181-.031h-1.266Z" transform="translate(-483.246 -1194.401)" fill="#66672c"/>
      <path id="Tracé_2505" data-name="Tracé 2505" d="M592.479,1204.547h-1.772l-.707-1.825h-3.217l-.664,1.825H584.4l3.133-8.048h1.719Zm-3-3.175-1.108-2.985-1.086,2.985Z" transform="translate(-545.057 -1194.401)" fill="#66672c"/>
      <path id="Tracé_2506" data-name="Tracé 2506" d="M669.3,1204.547V1196.5h1.582l3.291,5.369V1196.5h1.508v8.048h-1.635l-3.249-5.242v5.242Z" transform="translate(-621.003 -1194.401)" fill="#66672c"/>
      <path id="Tracé_2507" data-name="Tracé 2507" d="M748.743,1200.431l1.572.5a3.531,3.531,0,0,1-1.2,1.952,3.788,3.788,0,0,1-4.778-.454,4.2,4.2,0,0,1-1.034-3,4.425,4.425,0,0,1,1.034-3.122,3.577,3.577,0,0,1,2.732-1.107,3.345,3.345,0,0,1,2.394.875,3.116,3.116,0,0,1,.823,1.477l-1.6.379a1.73,1.73,0,0,0-.591-.992,1.7,1.7,0,0,0-1.1-.358,1.832,1.832,0,0,0-1.456.643,3.16,3.16,0,0,0-.559,2.078,3.362,3.362,0,0,0,.548,2.173,1.782,1.782,0,0,0,1.424.644,1.646,1.646,0,0,0,1.118-.411A2.231,2.231,0,0,0,748.743,1200.431Z" transform="translate(-687.197 -1193.238)" fill="#66672c"/>
      <path id="Tracé_2508" data-name="Tracé 2508" d="M823.1,1204.547V1196.5h5.97v1.36h-4.345v1.783h4.04V1201h-4.04v2.194h4.493v1.361H823.1Z" transform="translate(-758.58 -1194.401)" fill="#66672c"/>
      <path id="Tracé_2509" data-name="Tracé 2509" d="M919.8,1200.858l1.582-.158a1.932,1.932,0,0,0,.58,1.171,1.744,1.744,0,0,0,1.181.369,1.793,1.793,0,0,0,1.181-.327,1,1,0,0,0,.4-.781.716.716,0,0,0-.169-.485,1.3,1.3,0,0,0-.58-.348q-.285-.1-1.3-.348a4.492,4.492,0,0,1-1.835-.791,2.109,2.109,0,0,1-.39-2.763,2.138,2.138,0,0,1,1-.812,3.928,3.928,0,0,1,1.582-.285,3.378,3.378,0,0,1,2.279.665,2.341,2.341,0,0,1,.8,1.772l-1.624.074a1.476,1.476,0,0,0-.443-.9,1.657,1.657,0,0,0-1.034-.274,1.8,1.8,0,0,0-1.107.3.6.6,0,0,0-.253.5.624.624,0,0,0,.243.485,4.417,4.417,0,0,0,1.5.538,7.965,7.965,0,0,1,1.751.58,2.224,2.224,0,0,1,.886.823,2.409,2.409,0,0,1,.316,1.276,2.385,2.385,0,0,1-.38,1.3,2.282,2.282,0,0,1-1.086.9,4.462,4.462,0,0,1-1.751.3,3.47,3.47,0,0,1-2.342-.707A3.038,3.038,0,0,1,919.8,1200.858Z" transform="translate(-845.081 -1193.328)" fill="#66672c"/>
      <path id="Tracé_2510" data-name="Tracé 2510" d="M994.8,1186.747V1178.7h5.97v1.361h-4.346v1.782h4.04v1.361h-4.04v2.194h4.493v1.361H994.8Zm2.067-8.5.759-1.645h1.73l-1.508,1.645Z" transform="translate(-912.171 -1176.6)" fill="#66672c"/>
      <path id="Tracé_2511" data-name="Tracé 2511" d="M1066.1,1204.547V1196.5h1.582l3.291,5.369V1196.5h1.508v8.048h-1.635l-3.249-5.242v5.242Z" transform="translate(-975.95 -1194.401)" fill="#66672c"/>
      <path id="Tracé_2512" data-name="Tracé 2512" d="M1142.9,1186.747V1178.7h5.97v1.361h-4.346v1.782h4.04v1.361h-4.04v2.194h4.493v1.361H1142.9Zm2.057-8.5.759-1.645h1.73l-1.508,1.645Z" transform="translate(-1044.65 -1176.6)" fill="#66672c"/>
      <path id="Tracé_2513" data-name="Tracé 2513" d="M1215.229,1200.431v-1.36h3.5v3.206a4.3,4.3,0,0,1-1.477.865,5.317,5.317,0,0,1-1.962.38,4.486,4.486,0,0,1-2.2-.527,3.345,3.345,0,0,1-1.413-1.519,4.859,4.859,0,0,1-.475-2.141,4.7,4.7,0,0,1,.527-2.236,3.523,3.523,0,0,1,1.54-1.5,4.223,4.223,0,0,1,1.93-.4,3.814,3.814,0,0,1,2.342.633,2.9,2.9,0,0,1,1.086,1.74l-1.614.306a1.742,1.742,0,0,0-.643-.939,1.926,1.926,0,0,0-1.171-.348,2.209,2.209,0,0,0-1.7.675,2.837,2.837,0,0,0-.633,2,3.178,3.178,0,0,0,.633,2.152,2.131,2.131,0,0,0,1.667.717,2.716,2.716,0,0,0,1.023-.2,3.925,3.925,0,0,0,.886-.485v-1.023Z" transform="translate(-1105.746 -1193.238)" fill="#66672c"/>
      <path id="Tracé_2514" data-name="Tracé 2514" d="M1297.079,1204.547h-1.772l-.707-1.825h-3.217l-.665,1.825H1289l3.133-8.048h1.719Zm-3-3.175-1.108-2.985-1.087,2.985Z" transform="translate(-1175.339 -1194.401)" fill="#66672c"/>
      <path id="Tracé_2515" data-name="Tracé 2515" d="M1374.2,1205.085V1197.1h1.624v6.624h4.04v1.361Z" transform="translate(-1251.553 -1194.938)" fill="#66672c"/>
    </g>
  </g>
</svg>
