<svg xmlns="http://www.w3.org/2000/svg" width="88.83" height="64.665" viewBox="0 0 88.83 64.665">
  <g id="salama-assurance-seeklogo.com" transform="translate(-87.9 -201.033)">
    <g id="Groupe_612" data-name="Groupe 612" transform="translate(108.307 201.033)">
      <path id="Tracé_2491" data-name="Tracé 2491" d="M511.579,286.9,467.7,278.6v28.809h42.873Z" transform="translate(-465.222 -273.926)" fill="#cccbce"/>
      <path id="Tracé_2492" data-name="Tracé 2492" d="M448.341,216.153s3.242,1.326.771,2.26c0,0-3.549,1.326-2.157,8.5,0,0,3.856,8.538,10.949-1.838,0,0,4.164-9.979-1.85-16.613,0,0-4.784-7.833-15.89-3.718-10.8,4.007-12.413,15.173-12.208,21.644q.009.271.018.524c.307,6.375,4.32,12.214,4.32,12.214s.771,2.26-1.235,0c0,0-7.478-15.8-3.121-23.633,0,0,2.2-9.557,13.919-13.54s18.818,7.833,18.661,8.761c0,0,5.092,12.347-3.7,20.18,0,0-13.66,8.55-12.539-10.262.006,0,.048-3.013,4.061-4.477" transform="translate(-426.575 -201.127)" fill="#006767"/>
      <path id="Tracé_2493" data-name="Tracé 2493" d="M640.006,225.007s-3.242-1.326-.771-2.26c0,0,3.549-1.326,2.157-8.5,0,0-4.435-7.442-10.949,1.838,0,0-4.164,9.979,1.85,16.613,0,0,4.784,7.833,15.89,3.718,10.8-4.007,12.413-15.173,12.208-21.644q-.009-.271-.018-.524c-.307-6.375-4.32-12.214-4.32-12.214s-.771-2.26,1.235,0c0,0,7.478,15.8,3.121,23.633,0,0-2.2,9.557-13.919,13.54s-18.818-7.833-18.661-8.761c0,0-5.092-12.347,3.7-20.18,0,0,15.1-8.062,12.539,10.262-.006.006-.048,3.019-4.061,4.477" transform="translate(-614.323 -201.033)" fill="#66672c"/>
    </g>
    <g id="Groupe_613" data-name="Groupe 613" transform="translate(87.9 243.283)">
      <path id="Tracé_2494" data-name="Tracé 2494" d="M95.98,902.2l.1,4.26H95.7a4.376,4.376,0,0,0-1.344-2.579,3.368,3.368,0,0,0-2.314-.976,2.171,2.171,0,0,0-1.524.512,1.563,1.563,0,0,0-.56,1.181,1.42,1.42,0,0,0,.2.753,3.151,3.151,0,0,0,.874.874,20.856,20.856,0,0,0,2.043,1.1,9.012,9.012,0,0,1,3.025,2.085,3.5,3.5,0,0,1,.771,2.242,3.64,3.64,0,0,1-1.247,2.76,4.485,4.485,0,0,1-3.17,1.157,5.282,5.282,0,0,1-1.139-.12,8.817,8.817,0,0,1-1.35-.464,2,2,0,0,0-.747-.187.91.91,0,0,0-.518.187,1.369,1.369,0,0,0-.446.572H87.9v-4.814h.349a5.524,5.524,0,0,0,1.6,3.1A3.756,3.756,0,0,0,92.4,914.92a2.4,2.4,0,0,0,1.681-.573,1.779,1.779,0,0,0,.627-1.338,1.708,1.708,0,0,0-.241-.874,2.9,2.9,0,0,0-.729-.807A11.112,11.112,0,0,0,92,910.335a15.219,15.219,0,0,1-2.507-1.458,4.562,4.562,0,0,1-1.175-1.35,3.358,3.358,0,0,1-.41-1.639,3.475,3.475,0,0,1,1.121-2.6,3.922,3.922,0,0,1,2.826-1.073,4.683,4.683,0,0,1,1.205.151,6.17,6.17,0,0,1,1.079.422,2.531,2.531,0,0,0,.892.307.5.5,0,0,0,.386-.151,1.761,1.761,0,0,0,.265-.723h.3Z" transform="translate(-87.9 -902.2)" fill="#006767"/>
      <path id="Tracé_2495" data-name="Tracé 2495" d="M281.182,912.106h-4.513l-.536,1.247a2.811,2.811,0,0,0-.265,1.03.852.852,0,0,0,.434.789,3.688,3.688,0,0,0,1.253.229v.349H273.3V915.4a1.882,1.882,0,0,0,1.133-.572,7.431,7.431,0,0,0,1.091-1.928l4.573-10.2h.181l4.61,10.485a6.269,6.269,0,0,0,1.085,1.874,1.483,1.483,0,0,0,.9.337v.35h-6.182v-.35h.253a1.961,1.961,0,0,0,1.048-.2.506.506,0,0,0,.2-.434,1.2,1.2,0,0,0-.054-.349c-.012-.054-.108-.289-.283-.7Zm-.319-.693-1.9-4.4-1.958,4.4Z" transform="translate(-262.128 -902.67)" fill="#006767"/>
      <path id="Tracé_2496" data-name="Tracé 2496" d="M541.128,915.4l-.482,4.489H529.3v-.349h.422a1.769,1.769,0,0,0,.9-.2.9.9,0,0,0,.38-.452,4.006,4.006,0,0,0,.1-1.187v-8.412a4.32,4.32,0,0,0-.1-1.223.926.926,0,0,0-.422-.428,1.715,1.715,0,0,0-.856-.187H529.3V907.1h6.815v.349h-.554a1.769,1.769,0,0,0-.9.2.935.935,0,0,0-.386.452,4.01,4.01,0,0,0-.1,1.187v8.147a4,4,0,0,0,.115,1.247.737.737,0,0,0,.446.4,4.592,4.592,0,0,0,1.139.084h1.06a3.677,3.677,0,0,0,1.7-.355,3.183,3.183,0,0,0,1.175-1.133,9.153,9.153,0,0,0,.94-2.284h.38Z" transform="translate(-502.703 -906.805)" fill="#006767"/>
      <path id="Tracé_2497" data-name="Tracé 2497" d="M768.581,912.106h-4.513l-.536,1.247a2.811,2.811,0,0,0-.265,1.03.852.852,0,0,0,.434.789,3.688,3.688,0,0,0,1.253.229v.349H760.7V915.4a1.881,1.881,0,0,0,1.133-.572,7.429,7.429,0,0,0,1.091-1.928l4.573-10.2h.181l4.61,10.485a6.266,6.266,0,0,0,1.085,1.874,1.483,1.483,0,0,0,.9.337v.35h-6.182v-.35h.253a1.961,1.961,0,0,0,1.049-.2.506.506,0,0,0,.2-.434,1.2,1.2,0,0,0-.054-.349c-.012-.054-.109-.289-.283-.7Zm-.319-.693-1.9-4.4-1.958,4.4Z" transform="translate(-720.159 -902.67)" fill="#006767"/>
      <path id="Tracé_2498" data-name="Tracé 2498" d="M1025.916,915.43l3.471-8.43h5.206v.349h-.416a1.764,1.764,0,0,0-.9.2.942.942,0,0,0-.38.446,3.953,3.953,0,0,0-.1,1.181v8.43a4.322,4.322,0,0,0,.1,1.223.926.926,0,0,0,.422.428,1.732,1.732,0,0,0,.856.187h.416v.349h-6.676v-.349h.416a1.763,1.763,0,0,0,.9-.2.958.958,0,0,0,.38-.452,4,4,0,0,0,.1-1.187v-9.478l-4.9,11.66h-.229l-4.977-11.575v9a8.053,8.053,0,0,0,.048,1.157,1.376,1.376,0,0,0,.53.771,2.215,2.215,0,0,0,1.29.3v.349H1017.1v-.349h.133a2,2,0,0,0,.789-.139,1.26,1.26,0,0,0,.554-.392,1.733,1.733,0,0,0,.289-.687c.012-.066.018-.392.018-.964v-8.081a4.244,4.244,0,0,0-.1-1.211.916.916,0,0,0-.422-.422,1.732,1.732,0,0,0-.856-.187h-.4v-.349h5.224Z" transform="translate(-961.109 -906.711)" fill="#006767"/>
      <path id="Tracé_2499" data-name="Tracé 2499" d="M1344.681,912.106h-4.513l-.536,1.247a2.81,2.81,0,0,0-.265,1.03.851.851,0,0,0,.434.789,3.688,3.688,0,0,0,1.253.229v.349H1336.8V915.4a1.882,1.882,0,0,0,1.133-.572,7.427,7.427,0,0,0,1.091-1.928l4.573-10.2h.181l4.61,10.485a6.264,6.264,0,0,0,1.085,1.874,1.482,1.482,0,0,0,.9.337v.35h-6.182v-.35h.253a1.961,1.961,0,0,0,1.048-.2.506.506,0,0,0,.2-.434,1.209,1.209,0,0,0-.054-.349c-.012-.054-.109-.289-.283-.7Zm-.325-.693-1.9-4.4-1.958,4.4Z" transform="translate(-1261.545 -902.67)" fill="#006767"/>
    </g>
    <g id="Groupe_614" data-name="Groupe 614" transform="translate(95.342 259.818)">
      <path id="Tracé_2500" data-name="Tracé 2500" d="M216.016,1201.1H215l-.4-1.042h-1.838l-.38,1.042H211.4l1.79-4.6h.982Zm-1.711-1.814-.633-1.705-.621,1.705Z" transform="translate(-211.4 -1195.301)" fill="#66672c"/>
      <path id="Tracé_2501" data-name="Tracé 2501" d="M292.2,1198.475l.9-.09a1.1,1.1,0,0,0,.331.669,1,1,0,0,0,.675.211,1.025,1.025,0,0,0,.675-.187.574.574,0,0,0,.229-.446.41.41,0,0,0-.1-.277.743.743,0,0,0-.331-.2q-.163-.054-.741-.2a2.568,2.568,0,0,1-1.048-.452,1.2,1.2,0,0,1-.223-1.579,1.223,1.223,0,0,1,.572-.464,2.245,2.245,0,0,1,.9-.163,1.93,1.93,0,0,1,1.3.38,1.337,1.337,0,0,1,.458,1.012l-.928.042a.844.844,0,0,0-.253-.512.947.947,0,0,0-.591-.157,1.026,1.026,0,0,0-.633.169.34.34,0,0,0-.145.283.357.357,0,0,0,.139.277,2.52,2.52,0,0,0,.856.307,4.544,4.544,0,0,1,1,.331,1.272,1.272,0,0,1,.506.47,1.378,1.378,0,0,1,.181.729,1.362,1.362,0,0,1-.217.741,1.3,1.3,0,0,1-.621.512,2.55,2.55,0,0,1-1,.169,1.983,1.983,0,0,1-1.338-.4A1.71,1.71,0,0,1,292.2,1198.475Z" transform="translate(-287.331 -1194.173)" fill="#66672c"/>
      <path id="Tracé_2502" data-name="Tracé 2502" d="M363.3,1198.475l.9-.09a1.1,1.1,0,0,0,.331.669,1,1,0,0,0,.675.211,1.025,1.025,0,0,0,.675-.187.574.574,0,0,0,.229-.446.409.409,0,0,0-.1-.277.743.743,0,0,0-.331-.2q-.163-.054-.741-.2a2.569,2.569,0,0,1-1.048-.452,1.2,1.2,0,0,1-.223-1.579,1.223,1.223,0,0,1,.572-.464,2.245,2.245,0,0,1,.9-.163,1.93,1.93,0,0,1,1.3.38,1.337,1.337,0,0,1,.458,1.012l-.928.042a.843.843,0,0,0-.253-.512.947.947,0,0,0-.591-.157,1.026,1.026,0,0,0-.633.169.34.34,0,0,0-.145.283.357.357,0,0,0,.139.277,2.52,2.52,0,0,0,.856.307,4.542,4.542,0,0,1,1,.331,1.271,1.271,0,0,1,.506.47,1.378,1.378,0,0,1,.181.729,1.362,1.362,0,0,1-.217.741,1.3,1.3,0,0,1-.621.512,2.55,2.55,0,0,1-1,.169,1.983,1.983,0,0,1-1.338-.4A1.71,1.71,0,0,1,363.3,1198.475Z" transform="translate(-354.147 -1194.173)" fill="#66672c"/>
      <path id="Tracé_2503" data-name="Tracé 2503" d="M438.2,1196.412h.928v2.489a4.836,4.836,0,0,0,.036.765.751.751,0,0,0,.283.452.991.991,0,0,0,.615.169.927.927,0,0,0,.6-.163.634.634,0,0,0,.241-.4,4.768,4.768,0,0,0,.042-.783V1196.4h.922v2.416a6.436,6.436,0,0,1-.072,1.169,1.3,1.3,0,0,1-.277.579,1.341,1.341,0,0,1-.542.373,2.414,2.414,0,0,1-.886.139,2.544,2.544,0,0,1-1-.151,1.42,1.42,0,0,1-.536-.4,1.252,1.252,0,0,1-.259-.512,5.627,5.627,0,0,1-.09-1.169Z" transform="translate(-424.534 -1195.207)" fill="#66672c"/>
      <path id="Tracé_2504" data-name="Tracé 2504" d="M515.3,1201.1v-4.6h1.952a3.283,3.283,0,0,1,1.073.126,1.063,1.063,0,0,1,.536.44,1.33,1.33,0,0,1,.2.723,1.246,1.246,0,0,1-.3.855,1.451,1.451,0,0,1-.91.422,2.069,2.069,0,0,1,.494.386,5.222,5.222,0,0,1,.53.747l.56.9h-1.109l-.669-1a7.522,7.522,0,0,0-.488-.675.8.8,0,0,0-.277-.193,1.461,1.461,0,0,0-.47-.054h-.187v1.916H515.3Zm.928-2.651h.687a3.643,3.643,0,0,0,.832-.054.5.5,0,0,0,.259-.193.608.608,0,0,0,.1-.344.54.54,0,0,0-.127-.374.562.562,0,0,0-.349-.181c-.072-.012-.3-.018-.675-.018h-.723Z" transform="translate(-496.988 -1195.301)" fill="#66672c"/>
      <path id="Tracé_2505" data-name="Tracé 2505" d="M589.016,1201.1H588l-.4-1.042h-1.838l-.38,1.042H584.4l1.79-4.6h.982Zm-1.711-1.814-.633-1.705-.621,1.705Z" transform="translate(-561.924 -1195.301)" fill="#66672c"/>
      <path id="Tracé_2506" data-name="Tracé 2506" d="M669.3,1201.1v-4.6h.9l1.88,3.067V1196.5h.862v4.6h-.934l-1.856-2.995v2.995Z" transform="translate(-641.708 -1195.301)" fill="#66672c"/>
      <path id="Tracé_2507" data-name="Tracé 2507" d="M746.409,1198.189l.9.283a2.017,2.017,0,0,1-.687,1.115,2.164,2.164,0,0,1-2.73-.259,2.4,2.4,0,0,1-.591-1.711,2.528,2.528,0,0,1,.591-1.784,2.044,2.044,0,0,1,1.561-.633,1.911,1.911,0,0,1,1.368.5,1.781,1.781,0,0,1,.47.844l-.916.217a.989.989,0,0,0-.337-.566.968.968,0,0,0-.627-.2,1.047,1.047,0,0,0-.832.368,1.805,1.805,0,0,0-.319,1.187,1.921,1.921,0,0,0,.313,1.241,1.018,1.018,0,0,0,.813.368.94.94,0,0,0,.639-.235A1.274,1.274,0,0,0,746.409,1198.189Z" transform="translate(-711.249 -1194.079)" fill="#66672c"/>
      <path id="Tracé_2508" data-name="Tracé 2508" d="M823.1,1201.1v-4.6h3.41v.777h-2.482v1.018h2.308v.777h-2.308v1.253h2.567v.777H823.1Z" transform="translate(-786.241 -1195.301)" fill="#66672c"/>
      <path id="Tracé_2509" data-name="Tracé 2509" d="M919.8,1198.475l.9-.09a1.1,1.1,0,0,0,.331.669,1,1,0,0,0,.675.211,1.025,1.025,0,0,0,.675-.187.574.574,0,0,0,.229-.446.41.41,0,0,0-.1-.277.742.742,0,0,0-.331-.2q-.163-.054-.741-.2a2.568,2.568,0,0,1-1.048-.452,1.2,1.2,0,0,1-.223-1.579,1.222,1.222,0,0,1,.572-.464,2.246,2.246,0,0,1,.9-.163,1.93,1.93,0,0,1,1.3.38,1.337,1.337,0,0,1,.458,1.012l-.928.042a.843.843,0,0,0-.253-.512.947.947,0,0,0-.591-.157,1.026,1.026,0,0,0-.633.169.341.341,0,0,0-.145.283.357.357,0,0,0,.139.277,2.519,2.519,0,0,0,.856.307,4.54,4.54,0,0,1,1,.331,1.271,1.271,0,0,1,.506.47,1.377,1.377,0,0,1,.181.729,1.363,1.363,0,0,1-.217.741,1.3,1.3,0,0,1-.621.512,2.549,2.549,0,0,1-1,.169,1.983,1.983,0,0,1-1.338-.4A1.735,1.735,0,0,1,919.8,1198.475Z" transform="translate(-877.114 -1194.173)" fill="#66672c"/>
      <path id="Tracé_2510" data-name="Tracé 2510" d="M994.8,1182.4v-4.6h3.411v.777h-2.483v1.018h2.308v.777h-2.308v1.253h2.567v.777H994.8Zm1.181-4.857.434-.94h.988l-.862.94Z" transform="translate(-947.595 -1176.6)" fill="#66672c"/>
      <path id="Tracé_2511" data-name="Tracé 2511" d="M1066.1,1201.1v-4.6h.9l1.88,3.067V1196.5h.862v4.6h-.934l-1.856-2.995v2.995Z" transform="translate(-1014.598 -1195.301)" fill="#66672c"/>
      <path id="Tracé_2512" data-name="Tracé 2512" d="M1142.9,1182.4v-4.6h3.411v.777h-2.483v1.018h2.308v.777h-2.308v1.253h2.567v.777H1142.9Zm1.175-4.857.434-.94h.988l-.862.94Z" transform="translate(-1086.771 -1176.6)" fill="#66672c"/>
      <path id="Tracé_2513" data-name="Tracé 2513" d="M1213.5,1198.189v-.777h2v1.832a2.455,2.455,0,0,1-.844.494,3.037,3.037,0,0,1-1.121.217,2.562,2.562,0,0,1-1.259-.3,1.912,1.912,0,0,1-.807-.868,2.776,2.776,0,0,1-.271-1.223,2.684,2.684,0,0,1,.3-1.277,2.013,2.013,0,0,1,.88-.856,2.412,2.412,0,0,1,1.1-.229,2.18,2.18,0,0,1,1.338.361,1.66,1.66,0,0,1,.621.994l-.922.175a1,1,0,0,0-.368-.536,1.1,1.1,0,0,0-.669-.2,1.262,1.262,0,0,0-.97.386,1.621,1.621,0,0,0-.361,1.145,1.815,1.815,0,0,0,.361,1.229,1.218,1.218,0,0,0,.952.41,1.552,1.552,0,0,0,.585-.115,2.246,2.246,0,0,0,.506-.277v-.584Z" transform="translate(-1150.955 -1194.079)" fill="#66672c"/>
      <path id="Tracé_2514" data-name="Tracé 2514" d="M1293.615,1201.1H1292.6l-.4-1.042h-1.838l-.38,1.042H1289l1.79-4.6h.982Zm-1.711-1.814-.633-1.705-.621,1.705Z" transform="translate(-1224.067 -1195.301)" fill="#66672c"/>
      <path id="Tracé_2515" data-name="Tracé 2515" d="M1374.2,1201.661V1197.1h.928v3.784h2.308v.777Z" transform="translate(-1304.133 -1195.865)" fill="#66672c"/>
    </g>
  </g>
</svg>
