<svg xmlns="http://www.w3.org/2000/svg" width="384.83" height="280.143" viewBox="0 0 384.83 280.143">
  <g id="salama-assurance-seeklogo.com" transform="translate(-87.9 -201.033)">
    <g id="Groupe_612" data-name="Groupe 612" transform="translate(176.309 201.033)">
      <path id="Tracé_2491" data-name="Tracé 2491" d="M657.792,314.546,467.7,278.6V403.405H653.432Z" transform="translate(-456.965 -258.352)" fill="#cccbce"/>
      <path id="Tracé_2492" data-name="Tracé 2492" d="M520.87,266.2s14.044,5.743,3.341,9.789c0,0-15.375,5.743-9.345,36.807,0,0,16.707,36.99,47.432-7.962,0,0,18.038-43.229-8.014-71.97,0,0-20.727-33.936-68.837-16.106-46.805,17.359-53.775,65.731-52.888,93.767q.039,1.175.078,2.271c1.331,27.618,18.717,52.914,18.717,52.914s3.342,9.789-5.351,0c0,0-32.4-68.446-13.522-102.381,0,0,9.528-41.4,60.3-58.656s81.524,33.936,80.845,37.956c0,0,22.058,53.488-16.028,87.424,0,0-59.179,37.042-54.323-44.456.026,0,.209-13.052,17.594-19.4" transform="translate(-426.575 -201.107)" fill="#006767"/>
      <path id="Tracé_2493" data-name="Tracé 2493" d="M685.472,304.894s-14.044-5.743-3.341-9.789c0,0,15.375-5.743,9.345-36.807,0,0-19.213-32.239-47.432,7.962,0,0-18.038,43.229,8.014,71.97,0,0,20.727,33.936,68.837,16.106,46.805-17.359,53.775-65.731,52.887-93.767q-.039-1.175-.078-2.271c-1.331-27.618-18.717-52.914-18.717-52.914s-3.342-9.789,5.351,0c0,0,32.4,68.446,13.522,102.381,0,0-9.528,41.4-60.3,58.657s-81.524-33.936-80.845-37.956c0,0-22.058-53.488,16.028-87.424,0,0,65.417-34.928,54.323,44.456-.026.026-.209,13.078-17.594,19.4" transform="translate(-574.209 -201.033)" fill="#66672c"/>
    </g>
    <g id="Groupe_613" data-name="Groupe 613" transform="translate(87.9 384.069)">
      <path id="Tracé_2494" data-name="Tracé 2494" d="M122.906,902.2l.444,18.456h-1.671a18.959,18.959,0,0,0-5.821-11.173,14.592,14.592,0,0,0-10.024-4.229,9.4,9.4,0,0,0-6.6,2.219,6.771,6.771,0,0,0-2.428,5.116,6.153,6.153,0,0,0,.861,3.263,13.649,13.649,0,0,0,3.785,3.785,90.348,90.348,0,0,0,8.849,4.777c6.474,3.185,10.859,6.187,13.1,9.032a15.181,15.181,0,0,1,3.341,9.711,15.772,15.772,0,0,1-5.4,11.955,19.429,19.429,0,0,1-13.731,5.012,22.862,22.862,0,0,1-4.934-.522,38.184,38.184,0,0,1-5.847-2.01,8.681,8.681,0,0,0-3.237-.809,3.945,3.945,0,0,0-2.245.809,5.929,5.929,0,0,0-1.932,2.48H87.9V939.216h1.514q1.8,8.81,6.918,13.444a16.271,16.271,0,0,0,11.042,4.646,10.391,10.391,0,0,0,7.283-2.48,7.707,7.707,0,0,0,2.715-5.795,7.4,7.4,0,0,0-1.044-3.785,12.547,12.547,0,0,0-3.159-3.5,48.117,48.117,0,0,0-7.518-4.307,65.939,65.939,0,0,1-10.859-6.317,19.77,19.77,0,0,1-5.09-5.848,14.545,14.545,0,0,1-1.775-7.1A15.055,15.055,0,0,1,92.782,906.9a16.99,16.99,0,0,1,12.243-4.647,20.292,20.292,0,0,1,5.221.653,26.755,26.755,0,0,1,4.673,1.827,10.965,10.965,0,0,0,3.863,1.331,2.165,2.165,0,0,0,1.671-.652,7.627,7.627,0,0,0,1.149-3.133h1.305Z" transform="translate(-87.9 -902.2)" fill="#006767"/>
      <path id="Tracé_2495" data-name="Tracé 2495" d="M307.445,943.449H287.892l-2.323,5.4a12.178,12.178,0,0,0-1.149,4.464,3.689,3.689,0,0,0,1.88,3.419c.731.444,2.558.757,5.43.992v1.514H273.3v-1.514a8.151,8.151,0,0,0,4.908-2.48c1.279-1.357,2.871-4.124,4.725-8.353L302.746,902.7h.783l19.97,45.422c1.906,4.307,3.472,7.022,4.7,8.118a6.425,6.425,0,0,0,3.916,1.461v1.514H305.33V957.7h1.1a8.493,8.493,0,0,0,4.542-.887,2.191,2.191,0,0,0,.888-1.88,5.22,5.22,0,0,0-.235-1.514c-.052-.235-.47-1.253-1.227-3.054Zm-1.384-3-8.249-19.083-8.484,19.083Z" transform="translate(-224.903 -902.569)" fill="#006767"/>
      <path id="Tracé_2496" data-name="Tracé 2496" d="M580.543,943.046l-2.088,19.448H529.3v-1.514h1.827a7.668,7.668,0,0,0,3.89-.862,3.883,3.883,0,0,0,1.645-1.958,17.358,17.358,0,0,0,.444-5.143V916.576a18.722,18.722,0,0,0-.444-5.3,4.01,4.01,0,0,0-1.828-1.854,7.435,7.435,0,0,0-3.707-.809H529.3V907.1h29.524v1.514h-2.4a7.665,7.665,0,0,0-3.89.862,4.052,4.052,0,0,0-1.671,1.958,17.364,17.364,0,0,0-.444,5.143v35.293c0,2.819.157,4.646.5,5.4A3.192,3.192,0,0,0,552.846,959a19.887,19.887,0,0,0,4.934.366h4.594a15.928,15.928,0,0,0,7.361-1.54,13.785,13.785,0,0,0,5.09-4.907,39.656,39.656,0,0,0,4.072-9.894h1.644Z" transform="translate(-414.075 -905.821)" fill="#006767"/>
      <path id="Tracé_2497" data-name="Tracé 2497" d="M794.844,943.449H775.292l-2.323,5.4a12.177,12.177,0,0,0-1.149,4.464,3.689,3.689,0,0,0,1.88,3.419c.731.444,2.558.757,5.43.992v1.514H760.7v-1.514a8.149,8.149,0,0,0,4.907-2.48c1.279-1.357,2.872-4.124,4.725-8.353L790.145,902.7h.783l19.97,45.422c1.906,4.307,3.472,7.022,4.7,8.118a6.425,6.425,0,0,0,3.916,1.461v1.514H792.73V957.7h1.1a8.493,8.493,0,0,0,4.542-.887,2.191,2.191,0,0,0,.887-1.88,5.221,5.221,0,0,0-.235-1.514c-.053-.235-.47-1.253-1.227-3.054Zm-1.384-3-8.249-19.083-8.484,19.083Z" transform="translate(-585.07 -902.569)" fill="#006767"/>
      <path id="Tracé_2498" data-name="Tracé 2498" d="M1055.29,943.52,1070.327,907h22.554v1.514h-1.8a7.641,7.641,0,0,0-3.916.862,4.078,4.078,0,0,0-1.644,1.932,17.115,17.115,0,0,0-.444,5.116v36.52a18.709,18.709,0,0,0,.444,5.3,4.011,4.011,0,0,0,1.827,1.853,7.506,7.506,0,0,0,3.707.809h1.8v1.514h-28.924v-1.514h1.8a7.642,7.642,0,0,0,3.916-.862,4.151,4.151,0,0,0,1.645-1.958,17.342,17.342,0,0,0,.444-5.142V911.881l-21.223,50.512h-.992l-21.562-50.146v39a34.9,34.9,0,0,0,.209,5.012,5.961,5.961,0,0,0,2.3,3.341c1.175.861,3.054,1.279,5.586,1.279v1.514H1017.1v-1.514h.574a8.659,8.659,0,0,0,3.419-.6,5.461,5.461,0,0,0,2.4-1.7,7.507,7.507,0,0,0,1.253-2.976c.053-.287.078-1.7.078-4.177V916.423a18.378,18.378,0,0,0-.444-5.247,3.966,3.966,0,0,0-1.827-1.827,7.5,7.5,0,0,0-3.707-.809H1017.1v-1.514h22.632Z" transform="translate(-774.538 -905.747)" fill="#006767"/>
      <path id="Tracé_2499" data-name="Tracé 2499" d="M1370.944,943.449h-19.552l-2.323,5.4a12.174,12.174,0,0,0-1.149,4.464,3.689,3.689,0,0,0,1.879,3.419c.731.444,2.559.757,5.43.992v1.514H1336.8v-1.514a8.153,8.153,0,0,0,4.908-2.48c1.279-1.357,2.871-4.124,4.724-8.353l19.813-44.195h.783L1387,948.122c1.905,4.307,3.471,7.022,4.7,8.118a6.424,6.424,0,0,0,3.915,1.461v1.514H1368.83V957.7h1.1a8.5,8.5,0,0,0,4.542-.887,2.192,2.192,0,0,0,.888-1.88,5.23,5.23,0,0,0-.235-1.514c-.053-.235-.47-1.253-1.227-3.054Zm-1.409-3-8.249-19.083-8.484,19.083Z" transform="translate(-1010.782 -902.569)" fill="#006767"/>
    </g>
    <g id="Groupe_614" data-name="Groupe 614" transform="translate(120.139 455.699)">
      <path id="Tracé_2500" data-name="Tracé 2500" d="M231.4,1216.417H227.01l-1.749-4.516H217.3l-1.645,4.516H211.4l7.753-19.917h4.255Zm-7.414-7.857-2.741-7.388-2.689,7.388Z" transform="translate(-211.4 -1191.305)" fill="#66672c"/>
      <path id="Tracé_2501" data-name="Tracé 2501" d="M292.2,1209.057l3.916-.392a4.78,4.78,0,0,0,1.436,2.9,4.316,4.316,0,0,0,2.924.914,4.436,4.436,0,0,0,2.924-.81,2.487,2.487,0,0,0,.992-1.932,1.774,1.774,0,0,0-.418-1.2,3.216,3.216,0,0,0-1.436-.861q-.7-.235-3.211-.862a11.127,11.127,0,0,1-4.542-1.958,5.219,5.219,0,0,1-.966-6.839,5.293,5.293,0,0,1,2.48-2.01,9.726,9.726,0,0,1,3.916-.7q3.759,0,5.638,1.645a5.793,5.793,0,0,1,1.984,4.386l-4.02.183a3.655,3.655,0,0,0-1.1-2.219,4.1,4.1,0,0,0-2.558-.678,4.443,4.443,0,0,0-2.741.731,1.475,1.475,0,0,0-.627,1.227,1.547,1.547,0,0,0,.6,1.2,10.924,10.924,0,0,0,3.707,1.331,19.686,19.686,0,0,1,4.333,1.436,5.5,5.5,0,0,1,2.193,2.036,5.966,5.966,0,0,1,.783,3.158,5.9,5.9,0,0,1-.94,3.211,5.647,5.647,0,0,1-2.689,2.219,11.045,11.045,0,0,1-4.333.731,8.589,8.589,0,0,1-5.8-1.749A7.407,7.407,0,0,1,292.2,1209.057Z" transform="translate(-271.108 -1190.418)" fill="#66672c"/>
      <path id="Tracé_2502" data-name="Tracé 2502" d="M363.3,1209.057l3.916-.392a4.78,4.78,0,0,0,1.436,2.9,4.316,4.316,0,0,0,2.924.914,4.437,4.437,0,0,0,2.924-.81,2.486,2.486,0,0,0,.992-1.932,1.774,1.774,0,0,0-.417-1.2,3.215,3.215,0,0,0-1.436-.861q-.7-.235-3.211-.862a11.129,11.129,0,0,1-4.542-1.958,5.22,5.22,0,0,1-.966-6.839,5.294,5.294,0,0,1,2.48-2.01,9.725,9.725,0,0,1,3.916-.7q3.759,0,5.639,1.645a5.793,5.793,0,0,1,1.984,4.386l-4.02.183a3.654,3.654,0,0,0-1.1-2.219,4.1,4.1,0,0,0-2.558-.678,4.443,4.443,0,0,0-2.741.731,1.475,1.475,0,0,0-.626,1.227,1.547,1.547,0,0,0,.6,1.2,10.924,10.924,0,0,0,3.707,1.331,19.682,19.682,0,0,1,4.333,1.436,5.5,5.5,0,0,1,2.193,2.036,5.966,5.966,0,0,1,.783,3.158,5.9,5.9,0,0,1-.94,3.211,5.646,5.646,0,0,1-2.689,2.219,11.045,11.045,0,0,1-4.333.731,8.588,8.588,0,0,1-5.795-1.749A7.408,7.408,0,0,1,363.3,1209.057Z" transform="translate(-323.647 -1190.418)" fill="#66672c"/>
      <path id="Tracé_2503" data-name="Tracé 2503" d="M438.2,1196.452h4.02v10.781a20.944,20.944,0,0,0,.156,3.315,3.256,3.256,0,0,0,1.227,1.958,4.3,4.3,0,0,0,2.663.731,4.014,4.014,0,0,0,2.584-.7,2.746,2.746,0,0,0,1.044-1.723,20.636,20.636,0,0,0,.183-3.394V1196.4h3.994v10.468a27.89,27.89,0,0,1-.313,5.064,5.617,5.617,0,0,1-1.2,2.506,5.8,5.8,0,0,1-2.349,1.618,10.462,10.462,0,0,1-3.837.6,11.024,11.024,0,0,1-4.333-.653,6.159,6.159,0,0,1-2.323-1.723,5.425,5.425,0,0,1-1.122-2.219A24.385,24.385,0,0,1,438.2,1207Z" transform="translate(-378.995 -1191.231)" fill="#66672c"/>
      <path id="Tracé_2504" data-name="Tracé 2504" d="M515.3,1216.417V1196.5h8.458a14.2,14.2,0,0,1,4.646.548,4.6,4.6,0,0,1,2.323,1.905,5.762,5.762,0,0,1,.862,3.133,5.4,5.4,0,0,1-1.305,3.707,6.289,6.289,0,0,1-3.942,1.827,8.98,8.98,0,0,1,2.141,1.671,22.62,22.62,0,0,1,2.3,3.237l2.428,3.889h-4.8l-2.9-4.333a32.5,32.5,0,0,0-2.115-2.923,3.453,3.453,0,0,0-1.2-.835,6.321,6.321,0,0,0-2.036-.235h-.809v8.3H515.3Zm4.02-11.486H522.3a15.768,15.768,0,0,0,3.6-.235,2.141,2.141,0,0,0,1.122-.836,2.632,2.632,0,0,0,.418-1.488,2.338,2.338,0,0,0-.548-1.618,2.434,2.434,0,0,0-1.514-.783,29.1,29.1,0,0,0-2.924-.078H519.32Z" transform="translate(-435.969 -1191.305)" fill="#66672c"/>
      <path id="Tracé_2505" data-name="Tracé 2505" d="M604.4,1216.417H600.01l-1.749-4.516H590.3l-1.645,4.516H584.4l7.753-19.917h4.255Zm-7.414-7.857-2.741-7.388-2.689,7.388Z" transform="translate(-487.03 -1191.305)" fill="#66672c"/>
      <path id="Tracé_2506" data-name="Tracé 2506" d="M669.3,1216.417V1196.5h3.916l8.145,13.287V1196.5h3.733v19.917h-4.046l-8.04-12.974v12.974Z" transform="translate(-549.768 -1191.305)" fill="#66672c"/>
      <path id="Tracé_2507" data-name="Tracé 2507" d="M756.77,1208.147l3.889,1.227a8.738,8.738,0,0,1-2.976,4.83,9.376,9.376,0,0,1-11.825-1.123,10.4,10.4,0,0,1-2.558-7.414c0-3.315.862-5.9,2.558-7.727a8.852,8.852,0,0,1,6.761-2.74,8.279,8.279,0,0,1,5.926,2.167,7.713,7.713,0,0,1,2.036,3.655l-3.968.939a4.284,4.284,0,0,0-1.462-2.454,4.194,4.194,0,0,0-2.715-.887,4.535,4.535,0,0,0-3.6,1.592c-.913,1.07-1.383,2.768-1.383,5.143,0,2.506.444,4.307,1.357,5.377a4.411,4.411,0,0,0,3.524,1.592,4.074,4.074,0,0,0,2.767-1.018A5.52,5.52,0,0,0,756.77,1208.147Z" transform="translate(-604.451 -1190.345)" fill="#66672c"/>
      <path id="Tracé_2508" data-name="Tracé 2508" d="M823.1,1216.417V1196.5h14.775v3.367H827.12v4.412h10v3.368h-10v5.43h11.12v3.368H823.1Z" transform="translate(-663.419 -1191.305)" fill="#66672c"/>
      <path id="Tracé_2509" data-name="Tracé 2509" d="M919.8,1209.057l3.916-.392a4.78,4.78,0,0,0,1.436,2.9,4.316,4.316,0,0,0,2.924.914,4.437,4.437,0,0,0,2.924-.81,2.488,2.488,0,0,0,.992-1.932,1.774,1.774,0,0,0-.418-1.2,3.213,3.213,0,0,0-1.436-.861q-.7-.235-3.211-.862a11.128,11.128,0,0,1-4.542-1.958,5.219,5.219,0,0,1-.966-6.839,5.292,5.292,0,0,1,2.48-2.01,9.726,9.726,0,0,1,3.916-.7q3.76,0,5.639,1.645a5.794,5.794,0,0,1,1.984,4.386l-4.02.183a3.656,3.656,0,0,0-1.1-2.219,4.1,4.1,0,0,0-2.558-.678,4.444,4.444,0,0,0-2.741.731,1.475,1.475,0,0,0-.626,1.227,1.546,1.546,0,0,0,.6,1.2,10.922,10.922,0,0,0,3.707,1.331,19.678,19.678,0,0,1,4.333,1.436,5.5,5.5,0,0,1,2.193,2.036,5.965,5.965,0,0,1,.783,3.158,5.9,5.9,0,0,1-.94,3.211,5.646,5.646,0,0,1-2.689,2.219,11.044,11.044,0,0,1-4.333.731,8.59,8.59,0,0,1-5.8-1.749A7.518,7.518,0,0,1,919.8,1209.057Z" transform="translate(-734.876 -1190.418)" fill="#66672c"/>
      <path id="Tracé_2510" data-name="Tracé 2510" d="M994.8,1201.712v-19.917h14.775v3.368H998.82v4.411h10v3.368h-10v5.429h11.121v3.367H994.8Zm5.116-21.041,1.88-4.072h4.281l-3.733,4.072Z" transform="translate(-790.298 -1176.6)" fill="#66672c"/>
      <path id="Tracé_2511" data-name="Tracé 2511" d="M1066.1,1216.417V1196.5h3.916l8.145,13.287V1196.5h3.733v19.917h-4.046l-8.04-12.974v12.974Z" transform="translate(-842.986 -1191.305)" fill="#66672c"/>
      <path id="Tracé_2512" data-name="Tracé 2512" d="M1142.9,1201.712v-19.917h14.775v3.368H1146.92v4.411h10v3.368h-10v5.429h11.12v3.367H1142.9Zm5.091-21.041,1.879-4.072h4.281l-3.733,4.072Z" transform="translate(-899.738 -1176.6)" fill="#66672c"/>
      <path id="Tracé_2513" data-name="Tracé 2513" d="M1221.172,1208.147v-3.367h8.667v7.936a10.64,10.64,0,0,1-3.655,2.141,13.156,13.156,0,0,1-4.855.939,11.1,11.1,0,0,1-5.456-1.3,8.282,8.282,0,0,1-3.5-3.759,12.028,12.028,0,0,1-1.174-5.3,11.626,11.626,0,0,1,1.3-5.534,8.718,8.718,0,0,1,3.812-3.708,10.454,10.454,0,0,1,4.777-.991,9.439,9.439,0,0,1,5.795,1.566,7.191,7.191,0,0,1,2.688,4.308l-3.994.757a4.315,4.315,0,0,0-1.592-2.324,4.768,4.768,0,0,0-2.9-.861,5.467,5.467,0,0,0-4.2,1.671,7.021,7.021,0,0,0-1.566,4.959,7.863,7.863,0,0,0,1.566,5.326,5.274,5.274,0,0,0,4.125,1.775,6.725,6.725,0,0,0,2.532-.5,9.748,9.748,0,0,0,2.192-1.2v-2.532Z" transform="translate(-950.208 -1190.345)" fill="#66672c"/>
      <path id="Tracé_2514" data-name="Tracé 2514" d="M1309,1216.417h-4.385l-1.749-4.516H1294.9l-1.645,4.516H1289l7.753-19.917h4.255Zm-7.414-7.857-2.741-7.388-2.689,7.388Z" transform="translate(-1007.698 -1191.305)" fill="#66672c"/>
      <path id="Tracé_2515" data-name="Tracé 2515" d="M1374.2,1216.861V1197.1h4.02v16.394h10v3.368Z" transform="translate(-1070.658 -1191.748)" fill="#66672c"/>
    </g>
  </g>
</svg>
