<svg xmlns="http://www.w3.org/2000/svg" width="51.507" height="54.78" viewBox="0 0 51.507 54.78"><defs><style>.a{fill:#7a774c;}</style></defs><path class="a" d="M31.3,36.6a3.249,3.249,0,0,0,2.379-1.332l8.548-11.818a.914.914,0,0,0-1.275-1.275l-11.82,8.551a3.254,3.254,0,0,0,1.912,5.884C31.129,36.608,31.214,36.6,31.3,36.6Zm-1.676-3.354a1.425,1.425,0,0,1,.582-1.043l7.21-5.216L32.2,34.193a1.427,1.427,0,0,1-2.577-.95Z" transform="translate(-4.055 -1.914)"/><path class="a" d="M51.4,17.862c-.009-.019-.009-.039-.019-.058s-.028-.028-.04-.046a24.82,24.82,0,0,0-3.255-4.391l1.961-1.96L51.341,12.7l3.873-3.874L51.341,4.951,47.467,8.824l1.292,1.292L46.8,12.076a24.792,24.792,0,0,0-4.391-3.256c-.017-.012-.027-.029-.046-.04s-.039-.01-.058-.02a24.478,24.478,0,0,0-9.379-3.108V4.565h1.37a2.283,2.283,0,1,0,0-4.565H26.075a2.283,2.283,0,0,0,0,4.565h1.37V5.62a25.112,25.112,0,0,0-2.944.488.913.913,0,1,0,.408,1.779,23.218,23.218,0,0,1,2.538-.436l.98-.076c.3-.023.575-.039.844-.052V9.13a.913.913,0,1,0,1.826,0v-1.8a22.647,22.647,0,0,1,9.546,2.6l-.9,1.559a.913.913,0,1,0,1.581.913l.9-1.555a23,23,0,0,1,7.1,7.1l-1.555.9a.913.913,0,0,0,.915,1.581l1.558-.9a22.66,22.66,0,0,1,2.6,9.7h-1.8a.913.913,0,0,0,0,1.826h1.8a22.66,22.66,0,0,1-2.6,9.7l-1.558-.9a.913.913,0,0,0-.913,1.581l1.555.9a23,23,0,0,1-7.1,7.1l-.9-1.555a.913.913,0,0,0-1.581.913l.9,1.559a22.647,22.647,0,0,1-9.546,2.6v-1.8a.913.913,0,0,0-1.826,0v1.8a23.039,23.039,0,0,1-4.361-.563.913.913,0,0,0-.408,1.779,24.671,24.671,0,0,0,5.531.632c.045,0,.088,0,.132,0,.006,0,.011,0,.016,0s.014,0,.021,0a24.492,24.492,0,0,0,12.069-3.262.774.774,0,0,0,.086-.036c.018-.011.028-.028.046-.04a24.831,24.831,0,0,0,8.923-8.912.864.864,0,0,0,.055-.071c.011-.019.01-.039.019-.058a24.556,24.556,0,0,0,0-24.534ZM51.34,7.533l1.291,1.291L51.34,10.116,50.048,8.824ZM29.271,5.5V2.739h-3.2a.457.457,0,0,1,0-.913h8.217a.457.457,0,0,1,0,.913H31.1V5.5c-.318-.013-.621-.019-.913-.019l-.08,0-.068,0c-.15,0-.3.01-.449.013C29.48,5.494,29.381,5.493,29.271,5.5Z" transform="translate(-3.707)"/><path class="a" d="M21.271,14H16.706a.913.913,0,1,0,0,1.826h4.565a.913.913,0,1,0,0-1.826Z" transform="translate(-3.011 -1.218)"/><path class="a" d="M20.836,21h-9.13a.913.913,0,1,0,0,1.826h9.13a.913.913,0,1,0,0-1.826Z" transform="translate(-2.576 -1.827)"/><path class="a" d="M20.4,28H6.706a.913.913,0,1,0,0,1.826H20.4A.913.913,0,1,0,20.4,28Z" transform="translate(-2.141 -2.436)"/><path class="a" d="M20.053,35H2.706a.913.913,0,0,0,0,1.826H20.053a.913.913,0,0,0,0-1.826Z" transform="translate(-1.793 -3.045)"/><path class="a" d="M20.575,42H8.706a.913.913,0,1,0,0,1.826H20.575a.913.913,0,1,0,0-1.826Z" transform="translate(-2.315 -3.654)"/><path class="a" d="M21.1,49H14.706a.913.913,0,1,0,0,1.826H21.1A.913.913,0,1,0,21.1,49Z" transform="translate(-2.837 -4.263)"/></svg>